<?xml version="1.0" encoding="utf-8"?>
<!-- Generator: Adobe Illustrator 23.1.1, SVG Export Plug-In . SVG Version: 6.00 Build 0)  -->
<svg version="1.1" id="Layer_1" xmlns="http://www.w3.org/2000/svg" xmlns:xlink="http://www.w3.org/1999/xlink" x="0px" y="0px"
	 viewBox="0 0 293.35 289.95" style="enable-background:new 0 0 293.35 289.95;" xml:space="preserve">
<style type="text/css">
	.st0{fill:#8A4CA8;}
	.st1{clip-path:url(#SVGID_2_);}
	.st2{fill:#F29C9C;}
	.st3{fill:#F6EEEB;}
	.st4{fill:#25214E;}
	.st5{fill:#643A5E;}
	.st6{fill:#67539D;}
</style>
<path class="st0" d="M292.38,184.1c0,41.59-17.54,79.08-45.61,105.49c-0.47-0.56-0.94-1.1-1.42-1.61c-2.21-2.36-4.8-4.57-7.52-5.72
	c-2.61-1.1-2.9-0.91-8.42-1.2c-15.29-0.82-85.14-0.44-108.28,0c-13.3,0.26-18.76-0.02-27.07,1.2c-7.61,1.12-16.88,5.05-21.05,5.41
	c-2.17,0.19-2.29-0.48-4.21-0.6c-2.97-0.19-8.68-0.83-12.63,0c-2.56,0.54-5.27,1.39-7.61,2.62C20.39,263.28,2.81,225.75,2.81,184.1
	c0-79.96,64.82-144.78,144.78-144.78S292.38,104.14,292.38,184.1z"/>
<g>
	<defs>
		<rect id="SVGID_1_" x="-0.83" y="0.76" width="294.08" height="289.05"/>
	</defs>
	<clipPath id="SVGID_2_">
		<use xlink:href="#SVGID_1_"  style="overflow:visible;"/>
	</clipPath>
	<g class="st1">
		<path class="st2" d="M281.39,280.2c-0.69-1.02-1.46-1.83-2.27-2.48l-22.54-38.42l0,0l-29.55-51.06c0.77-1.33,1.49-2.69,2.11-4.12
			c3.12-7.17,4.07-15.09,4.29-22.91c0.1-3.66,0.04-7.4-1.18-10.85c-1.43-4.06-4.35-7.42-7.46-10.39
			c-5.2-4.97-11.14-9.17-17.56-12.41c-4.57-2.31-9.41-4.16-13.62-7.08c-4.21-2.92-7.84-7.18-8.52-12.25
			c-0.36-2.73,0.13-5.4,0.96-8.03c0.8-2.54,1.91-5.05,2.85-7.53c2.26-5.94,3.62-12.21,4.07-18.55c2.58-10.85,2.18-22.44-1.45-33
			c-2.12-6.17-5.33-12.08-10.06-16.57c-4.63-4.4-10.39-8.36-15.68-11.87c-5.73-3.8-11.49-6.97-18.22-8.68
			c-9.31-2.37-20.97-2.17-28.1,5.19c-3.5,3.61-5.75,8.24-7.62,12.91c-3.33-1.12-7.02-1.37-10.35-0.23
			c-5.56,1.91-9.21,7.3-11.27,12.8c-2.59,6.94-3.2,14.58-1.92,21.87c0.5,2.86,1.23,6.13,2.48,8.94c-0.06-0.01-0.13-0.02-0.19-0.03
			c-0.84-1.61-1.65-3.24-2.39-4.87c-0.1,1.76-0.13,3.52-0.11,5.28c-0.32,0.19-0.62,0.42-0.91,0.75c-2.75,3.19-1.15,13.49,3.92,19.92
			c3.83,13.48,11.16,25.99,21.31,35.67c0.72,0.69,1.47,1.37,2.25,2.02v6.61l-0.18-0.25l-6.18,12.51l-33.03,18.76l-5.22,2.96
			l-1.33,0.76l-15.16,8.61c0,0,0.06,0.21,0.17,0.6l-25.28,81.48l-10.39,36.19c0,0-0.66,2.04-0.97,5.02
			c-1.45,6.14-2.45,12.42-1.7,18.65c2.09,17.42,15.87,28.61,29.13,38.06c6.14,4.37,12.31,8.71,18.49,13.03l-4.31,27.15l3.34,0.72
			l-2.66,19.12H218.3l-3.81-19.69l0.67-0.15l-1.85-8.87c1.65-0.32,4.9-1.3,6.64-4.26c0,0,4.54-1.22,6.65-6.22
			c0,0,9.33-12.11-0.87-26.49c13.42-5.96,35.24-15.75,47.69-21.91c4.16-2.05,8.05-4.72,11.24-8.11c2.32-2.46,5.49-6.15,5.72-9.66
			C291.05,298.67,287.13,288.62,281.39,280.2z M68.81,304.83l2.56,9.76l-1.31,8.24c-1.55-2.48-3.14-4.92-4.83-7.25
			C66.25,312.6,67.47,308.92,68.81,304.83z M218.68,313.86c-5.55,5.44-11.1,10.88-16.65,16.32l-0.08-0.43h-0.26l-3.16-15.14l0-0.01
			l15.82-47.28c7.49,8.24,17.02,18.9,23.95,27.18C231.48,300.7,225.14,307.53,218.68,313.86z"/>
		<path class="st3" d="M126.62,79.4C126.62,79.4,126.62,79.4,126.62,79.4c0,0,0-0.01,0-0.01c-0.03-0.32-0.09-0.63-0.15-0.93
			c-1.26-7.2-7.78-10-14.38-10.22c-6.89-0.23-9.75,2.82-9.75,2.82c2.36,3.69,5.87,5.52,5.87,5.52l-0.01-0.02
			c1.45,1.14,2.99,1.97,4.53,2.56c1.55,0.59,3.1,0.94,4.58,1.13c5.11,0.66,9.32-0.62,9.32-0.62S126.63,79.55,126.62,79.4z"/>
		<path class="st4" d="M108.22,76.59l-0.01-0.02l-2.82-5c2.16-0.66,4.13-0.97,5.94-1.01c-1.04,1.87-0.91,4.25-0.27,6.33
			c0.39,0.86,0.97,1.61,1.68,2.24c1.55,0.59,3.1,0.94,4.58,1.13c0.53-0.02,1.05-0.1,1.56-0.28c2.42-0.82,3.93-2.7,4.44-4.79
			c2.25,2.13,3.3,4.2,3.31,4.22c0,0,0,0,0,0c0-0.01,0-0.01,0-0.02c-0.03-0.32-0.09-0.63-0.15-0.93c-1.26-7.2-7.78-10-14.38-10.22
			c-6.89-0.23-9.75,2.82-9.75,2.82C104.71,74.75,108.22,76.59,108.22,76.59z"/>
		<polygon class="st3" points="165.05,143.32 159.36,130.57 159.18,130.79 153.19,138.24 136.07,159.54 114.68,130.82 114.5,130.57 
			108.31,143.08 96.93,149.55 130.03,211.94 136.93,224.94 136.93,226.61 142.62,215.66 176.72,149.98 		"/>
		<path class="st4" d="M102.27,91.8c-0.12,0.01-0.23,0.04-0.35,0.05c-4.48,0.38-8.12-1.93-10.8-5.33
			c3.83,13.48,11.16,25.99,21.31,35.67c0.72,0.69,1.47,1.37,2.25,2.02v-12.79C109.4,106.41,105.11,99.67,102.27,91.8z"/>
		<path class="st4" d="M90.6,65.44c-0.84-1.61-1.65-3.24-2.39-4.87c-0.1,1.76-0.13,3.52-0.11,5.28
			C88.86,65.38,89.71,65.28,90.6,65.44z"/>
		<polygon class="st4" points="139.4,175.59 145.09,168.58 170.04,156.74 165.87,144.59 165.44,144.74 165.44,144.74 169.47,156.5 
			144.89,168.16 136.17,160.43 127.38,168.23 103.62,153.24 108.39,144.33 107.98,144.11 107.98,144.11 103.01,153.4 127.43,168.8 
			132.95,175.59 130.03,211.94 136.93,224.94 136.93,226.61 142.62,215.66 		"/>
		<path class="st4" d="M201.69,329.74l0.13,0.64c0.07-0.07,0.14-0.14,0.21-0.21l-0.08-0.43H201.69z"/>
		<path class="st5" d="M281.39,280.2c-0.69-1.02-1.46-1.82-2.28-2.48l-22.53-38.42l-29.55-51.06l-8.02-13.84
			c0.03-0.14,0.06-0.22,0.06-0.22l-12.75-7.29l-29.39-17.34l-0.22,0.43l-34.1,65.68l-5.68,10.95v-1.66l-6.9-13.01l-33.11-62.39
			l-21.65,12.29l-5.21,2.97l-1.33,0.75l-15.16,8.62c0,0,0.05,0.21,0.16,0.6l-25.28,81.48l-10.39,36.2c0,0-0.67,2.04-0.97,5.02
			c-1.45,6.14-2.44,12.42-1.7,18.66c2.1,17.41,15.87,28.61,29.13,38.05c6.14,4.38,12.31,8.71,18.49,13.03l-4.31,27.15l3.35,0.72
			l-2.66,19.12H218.3l-3.81-19.69l0.67-0.15l-1.85-8.87c-0.63,0.13-1.03,0.15-1.03,0.15c-4.73,6.48-8.48,4.07-8.48,4.07
			c-7.93,5.72-10.48,1.11-9.68-2.32c0.81-3.43,6.23-9.96,8.03-18.01c1.8-8.04-3.07-19.19-5.97-17.16
			c-2.91,2.03-6.54,10.14-9.04,10.99c-5.35,1.85-5.55-3.67-4.38-8.25c1.16-4.59,6.46-14.66,8.91-16.95
			c2.43-2.28,8.82-6.42,8.82-6.42l17.82,9.1c3.2,2.64,5.61,5.26,7.42,7.81c13.43-5.95,35.24-15.74,47.69-21.9
			c4.16-2.05,8.05-4.71,11.24-8.11c2.33-2.46,5.49-6.14,5.72-9.66C291.04,298.67,287.13,288.62,281.39,280.2z M70.07,322.84
			c-1.55-2.48-3.14-4.92-4.83-7.25c1.02-2.99,2.24-6.66,3.57-10.75l2.56,9.75L70.07,322.84z M218.68,313.86
			c-5.55,5.43-11.1,10.88-16.66,16.31c-0.07,0.07-0.14,0.14-0.21,0.21l-0.13-0.64l-3.16-15.14v-0.01l15.82-47.27
			c7.48,8.24,17.02,18.9,23.94,27.19C231.48,300.7,225.15,307.53,218.68,313.86z"/>
		<polygon class="st4" points="136.93,364.8 132.33,410.28 62.05,395.08 59.39,414.2 218.3,414.2 214.49,394.51 142.57,410.28 		"/>
		<path class="st6" d="M136.82,120.87c-5.53,0-10.78-1.58-15.52-4.4c10.22,7.58,20.89,14.13,31.9,21.77l5.99-7.45v-19.59
			C152.89,117.28,145.17,120.87,136.82,120.87z"/>
		<path class="st4" d="M95.15,77.15c-2.22-1.96-4.66-4.07-5.65-4.76l-0.37,0.53c0.76,0.53,2.59,2.09,4.45,3.71
			c-0.01,0.18-0.02,0.36-0.02,0.54c0,4.78,2.7,8.04,2.72,8.06l0.5-0.41l0,0l-0.1-0.13c-0.48-0.64-2.46-3.54-2.46-7.5
			c0.17,0.15,0.34,0.29,0.5,0.44c1.1,0.97,2.15,1.91,2.92,2.6c0.77,0.69,1.26,1.13,1.26,1.14l0.44-0.48h0
			C99.33,80.89,97.36,79.1,95.15,77.15z"/>
		<path class="st4" d="M131.75,92.78c0.09-0.11,1.03-1.12,2.45-1.11c0.61,0,1.31,0.17,2.13,0.69l0.5,0.32v-0.09l0.02,0.03
			c0.93-0.85,1.81-1.1,2.58-1.1c0.63,0,1.19,0.18,1.59,0.36c0.2,0.09,0.36,0.18,0.46,0.25l0.12,0.08l0.03,0.02l0.4-0.52h0
			c-0.03-0.02-1.09-0.84-2.6-0.84c-0.79,0-1.7,0.26-2.6,0.95V69.38h-0.65l0,22.15c-0.71-0.36-1.38-0.51-1.97-0.51
			c-1.86,0.01-2.93,1.33-2.96,1.35L131.75,92.78L131.75,92.78z"/>
		<path class="st4" d="M148.45,98.35L148.45,98.35l-0.04,0.03c-0.44,0.27-4.38,2.62-11.15,2.62c-3.26,0-7.17-0.54-11.67-2.13
			l-0.22,0.61c4.56,1.61,8.55,2.16,11.88,2.16c7.38,0,11.51-2.73,11.55-2.75L148.45,98.35z"/>
		<path class="st4" d="M136.88,103.7c-1.21,0-2.15-0.17-2.78-0.33c-0.32-0.08-0.56-0.16-0.72-0.22l-0.18-0.07l-0.05-0.02l-0.29,0.58
			l0,0c0.03,0.02,1.48,0.71,4.01,0.71c1.27,0,2.8-0.17,4.57-0.7l-0.18-0.62C139.56,103.53,138.09,103.7,136.88,103.7z"/>
		<path class="st4" d="M125.56,71.72c0.74,0.82,1.23,1.62,1.53,2.21c0.15,0.29,0.26,0.54,0.33,0.7l0.07,0.19l0.02,0.06l0.62-0.2h0
			c-0.01-0.03-0.53-1.65-2.09-3.4c-1.55-1.74-4.16-3.6-8.25-4.04l-0.07,0.65C121.65,68.32,124.08,70.08,125.56,71.72z"/>
		<path class="st4" d="M99.19,71.8c0,0,1.88-2.25,4.41-5.96c4.96,0.33,20.99-0.22,23.36-0.74c2.48-0.54,3.21-1.68,3.21-1.68
			c4.1-3.94-13.23-2.67-19.19-1.89c-2.82,0.36-4.75,1.34-6.01,2.26c5.33-8.23,12.35-21.59,11.86-34.26c0.03,0.89,2.59,3.39,3.11,4.5
			c1.49,3.15,2.83,6.37,4.25,9.55c2.82,6.37,5.72,12.72,9.21,18.76c5.43,9.41,12.45,18.17,21.71,23.83
			c4.92,3.01,10.42,5.05,16.1,6.06c-2.8,7.57-6.94,14.08-12.02,18.98v19.59l0.18-0.22l5.69,12.74l11.66,6.66l0.22-0.43l29.39,17.34
			v0l12.75,7.28c0,0-0.02,0.08-0.06,0.22l8.01,13.85c0.77-1.33,1.49-2.69,2.11-4.12c3.12-7.17,4.07-15.09,4.29-22.91
			c0.1-3.66,0.04-7.4-1.18-10.85c-1.43-4.06-4.35-7.42-7.46-10.39c-5.2-4.97-11.14-9.17-17.56-12.41
			c-4.57-2.31-9.41-4.16-13.62-7.08c-4.21-2.92-7.84-7.18-8.52-12.25c-0.36-2.73,0.13-5.4,0.96-8.03c0.8-2.54,1.91-5.05,2.85-7.53
			c2.26-5.94,3.62-12.21,4.07-18.55c2.58-10.85,2.18-22.44-1.45-33c-2.12-6.17-5.33-12.08-10.06-16.57
			c-4.63-4.4-10.39-8.36-15.68-11.87c-5.73-3.8-11.49-6.97-18.22-8.68c-9.31-2.37-20.97-2.17-28.1,5.19
			c-3.5,3.61-5.75,8.24-7.62,12.91c-3.33-1.12-7.02-1.37-10.35-0.23c-5.56,1.91-9.21,7.3-11.27,12.8
			c-2.59,6.94-3.2,14.58-1.92,21.87c0.5,2.86,1.23,6.13,2.48,8.94c0.33,0.73,0.68,1.44,1.09,2.1C93.49,70.15,96.43,70.6,99.19,71.8z
			"/>
		<path class="st4" d="M211.88,366.41l-0.59-0.03c-0.41,7.46-2.26,12.88-4,16.43c-0.87,1.78-1.71,3.08-2.34,3.95
			c-0.31,0.43-0.57,0.75-0.75,0.96c-0.09,0.11-0.16,0.18-0.2,0.23l-0.07,0.07l0.42,0.41C204.4,388.4,211.05,381.5,211.88,366.41z"/>
		<polygon class="st4" points="204.36,388.44 204.36,388.43 204.36,388.43 		"/>
		<path class="st4" d="M215.54,379.62c-0.76,1.5-1.49,2.65-2.03,3.42c-0.27,0.39-0.49,0.68-0.65,0.88c-0.15,0.2-0.24,0.29-0.24,0.29
			l0.44,0.39c0.02-0.03,5.78-6.58,6.57-17.88l-0.58-0.04C218.66,372.24,217.05,376.63,215.54,379.62z"/>
		<polygon class="st4" points="213.06,384.6 213.06,384.6 213.06,384.6 		"/>
		<path class="st4" d="M222.37,375.68c-0.49,1.2-0.98,2.16-1.34,2.82c-0.18,0.33-0.33,0.59-0.43,0.76c-0.1,0.17-0.16,0.26-0.16,0.26
			l0.49,0.32c0.01-0.02,3.89-5.93,4.19-13.59l-0.59-0.02C224.39,369.95,223.36,373.28,222.37,375.68z"/>
		<polygon class="st4" points="220.93,379.83 220.93,379.83 220.93,379.83 		"/>
		<path class="st4" d="M218.85,179.51L218.85,179.51c-0.01,0.07-0.02,0.17-0.04,0.36c-0.45,5.87-4.56,85.83-4.56,85.83l0.46,0.02
			c0,0,0.27-5.32,0.69-13.33l23.2-5.89l-0.11-0.45l-23.07,5.86c0.12-2.4,0.26-5.02,0.41-7.81c0.42-0.55,4-5.3,7.63-10.18
			c1.93-2.6,3.88-5.23,5.38-7.3c0.75-1.03,1.39-1.92,1.85-2.59c0.23-0.34,0.42-0.62,0.56-0.83c0.14-0.22,0.23-0.37,0.28-0.48
			l-0.43-0.17l0,0c-0.01,0.04-0.1,0.2-0.24,0.4c-1.03,1.6-4.9,6.84-8.5,11.67c-1.8,2.42-3.54,4.73-4.83,6.44
			c-0.73,0.97-1.3,1.73-1.67,2.22c0.57-11.02,1.27-24.39,1.89-36.04c0.4-7.56,0.77-14.39,1.04-19.37c0.14-2.49,0.25-4.52,0.34-5.95
			c0.04-0.71,0.08-1.28,0.11-1.68c0.01-0.2,0.03-0.35,0.03-0.46l0.01-0.13l0-0.04l0-0.01l-0.04-0.01L218.85,179.51z"/>
		<path class="st4" d="M58.87,252.4c0.41,8,0.69,13.33,0.69,13.33l0.46-0.02c0,0-1.1-21.3-2.22-42.72
			c-0.56-10.71-1.13-21.45-1.57-29.57c-0.22-4.06-0.41-7.47-0.55-9.89c-0.07-1.21-0.13-2.18-0.17-2.85
			c-0.02-0.34-0.04-0.61-0.05-0.8c-0.02-0.2-0.02-0.29-0.04-0.36l-0.45,0.1h0l0.01,0l-0.01,0c0.03,0.16,0.12,1.68,0.27,4.14
			c0.5,8.63,1.58,29.12,2.54,47.46c0.22,4.2,0.43,8.28,0.63,12.08c-0.41-0.55-1.08-1.44-1.93-2.57c-2.15-2.86-5.39-7.19-8.14-10.91
			c-1.37-1.86-2.62-3.57-3.55-4.87c-0.46-0.65-0.85-1.2-1.13-1.61c-0.28-0.41-0.46-0.7-0.48-0.77l-0.43,0.17h0
			c0.05,0.11,0.14,0.26,0.28,0.48c2.03,3.14,14.61,19.82,15.43,20.9c0.14,2.79,0.28,5.41,0.4,7.81l-23.07-5.86l-0.11,0.45
			L58.87,252.4z"/>
		<polygon class="st4" points="137.16,322.47 169.76,323.5 169.77,323.04 137.16,322.01 137.16,308.96 180.22,298.25 180.1,297.8 
			137.16,308.49 137.16,228.93 136.7,228.93 136.7,308.6 99.99,317.73 100.1,318.18 136.7,309.08 136.7,321.99 117.32,321.38 
			117.31,321.84 136.7,322.46 136.7,362 137.16,362 		"/>
	</g>
</g>
</svg>
