<?xml version="1.0" encoding="utf-8"?>
<!-- Generator: Adobe Illustrator 23.1.1, SVG Export Plug-In . SVG Version: 6.00 Build 0)  -->
<svg version="1.1" id="Layer_1" xmlns="http://www.w3.org/2000/svg" xmlns:xlink="http://www.w3.org/1999/xlink" x="0px" y="0px"
	 viewBox="0 0 890.26 431.73" style="enable-background:new 0 0 890.26 431.73;" xml:space="preserve">
<style type="text/css">
	.st0{fill:#E6E6E6;}
	.st1{fill:#FFFFFF;}
	.st2{fill:#6615BF;}
	.st3{fill:#3F3D56;}
	.st4{fill:#FFB8B8;}
	.st5{fill:#2F2E41;}
	.st6{fill:#575A89;}
	.st7{fill:#D0CDE1;}
	.st8{fill:#F29C9C;}
	.st9{fill:#F6EEEB;}
	.st10{fill:#25214E;}
	.st11{fill:#643A5E;}
	.st12{fill:#67539D;}
	.st13{clip-path:url(#SVGID_2_);}
	.st14{font-family:'Kefa-Regular';}
	.st15{font-size:18.2654px;}
</style>
<rect x="186.28" y="1.7" class="st0" width="703.58" height="387.54"/>
<rect x="248.5" y="53.74" class="st1" width="254" height="224.47"/>
<rect x="597.5" y="58.09" class="st1" width="254" height="272.64"/>
<ellipse class="st0" cx="393.21" cy="411.95" rx="45.5" ry="5.59"/>
<ellipse class="st0" cx="107.74" cy="406.36" rx="104.43" ry="4.3"/>
<rect x="185.98" y="1.36" class="st2" width="703.58" height="25.71"/>
<ellipse class="st0" cx="208.19" cy="14.5" rx="5.54" ry="4.76"/>
<ellipse class="st0" cx="229.22" cy="14.5" rx="5.54" ry="4.76"/>
<ellipse class="st0" cx="250.25" cy="14.5" rx="5.54" ry="4.76"/>
<path class="st3" d="M795.5,131.22h-1.54V94.97c0-11.59-10.92-20.98-24.4-20.98h-89.3c-13.47,0-24.4,9.39-24.4,20.98v198.88
	c0,11.59,10.92,20.98,24.4,20.98h89.3c13.47,0,24.4-9.39,24.4-20.98V157.03h1.54V131.22z"/>
<path class="st1" d="M769.55,79.45h-11.66c2.32,4.9-1.87,10.25-8.01,10.25h-51.16c-6.15,0-10.34-5.36-8.01-10.25h-10.89
	c-10.06,0-18.22,7.01-18.22,15.67V293.7c0,8.65,8.16,15.67,18.22,15.67h89.73c10.06,0,18.22-7.02,18.22-15.67V95.12
	C787.77,86.46,779.61,79.45,769.55,79.45z"/>
<rect x="287.4" y="217.9" class="st2" width="176.54" height="6.93"/>
<rect x="287.4" y="240.26" class="st0" width="176.54" height="6.93"/>
<rect x="674.15" y="210.65" class="st0" width="103.06" height="6.93"/>
<rect x="674.15" y="232.15" class="st0" width="103.06" height="6.93"/>
<rect x="674.15" y="253.65" class="st0" width="103.06" height="6.93"/>
<rect x="770.81" y="346.42" class="st3" width="17.18" height="14.77"/>
<rect x="743.14" y="346.42" class="st2" width="17.18" height="14.77"/>
<rect x="715.46" y="346.42" class="st3" width="17.18" height="14.77"/>
<rect x="687.79" y="346.42" class="st3" width="17.18" height="14.77"/>
<rect x="660.11" y="346.42" class="st3" width="17.18" height="14.77"/>
<path class="st4" d="M352.91,238.38l-0.74,1.28l-2.22-9.56c0,0-2.96-10.2,2.96-10.2c5.93,0,4.45,10.2,4.45,10.2v7.01L352.91,238.38z
	"/>
<path class="st4" d="M450.16,237.07l0.74,1.27l2.22-9.56c0,0,2.96-10.2-2.96-10.2c-5.93,0-4.45,10.2-4.45,10.2v7.01L450.16,237.07z"
	/>
<polygon class="st5" points="385.52,310.06 376.63,357.23 381.08,403.12 391.45,399.3 389.97,364.88 400.35,337.47 402.57,369.98 
	398.12,403.76 411.46,405.04 421.1,335.56 420.36,311.97 "/>
<path class="st5" d="M385.52,397.39l-5.19,7.01v15.67c0,0.93,0.79,1.73,1.86,1.88c2.54,0.36,6.97,0.61,8.52-1.61
	c2.22-3.19,0.74-10.2,0.74-10.2s2.96-5.1,1.48-8.92s-2.96-4.46-2.96-4.46L385.52,397.39z"/>
<path class="st5" d="M407.76,403.76l1.48,1.91c0,0,2.22,1.91,0.74,3.19c-1.09,0.99-2.08,2.06-2.96,3.19c0,0-8.15,1.91-8.15-0.64
	v-8.29L407.76,403.76z"/>
<ellipse class="st4" cx="405.09" cy="249.74" rx="9.82" ry="8.45"/>
<polygon class="st4" points="398.49,252.38 397.75,264.49 411.09,265.12 410.35,253.01 "/>
<path class="st6" d="M412.95,265.44l-2.1-4.42c0,0-9.75-3.23-12.72-0.04l-1.48,3.82l-11.86-2.55L378.11,275l5.93,36.33
	c0,0,15.56,17.21,36.32,0.64l5.93-34.42l-4.45-13.39L412.95,265.44z"/>
<polygon class="st6" points="420.36,266.72 421.84,264.17 436.66,256.52 445.71,233.49 452.71,236.07 444.82,263.53 423.32,280.74 
	"/>
<polygon class="st6" points="386.27,263.53 384.78,262.26 369.22,253.97 358.1,234.85 349.21,237.4 358.84,260.98 382.56,277.55 "/>
<path class="st5" d="M412.38,236.8l1.61-0.69l-2.41-0.69v-0.69c0,0-12.05-4.14-13.65,2.76c-4.26,4.92-4.26,11.66,0,16.58v2.07
	l12.85,1.38l1.61-4.14C412.38,253.37,420.41,240.94,412.38,236.8z"/>
<path class="st4" d="M118.4,310.81l-2.86,1.23c0,0-11.42,4.5-8.09,6.96c3.33,2.46,12.37-2.45,12.37-2.45l1.9-2.05L118.4,310.81z"/>
<polygon class="st5" points="201.94,310.2 193.12,361.15 179.79,396.76 172.65,393.9 179.32,345.19 160.28,331.28 161.71,310.81 "/>
<path class="st5" d="M171.7,395.13c0,0,8.09-3.68,8.57,1.64l-0.95,5.32c0,0,2.85,9.41-6.66,7.37c-9.52-2.05-2.86-8.19-2.86-8.19
	L171.7,395.13z"/>
<path class="st5" d="M166.47,326.77l-6.19,4.5c0,0,0,27.83,4.28,31.93c4.28,4.09,31.41,24.97,32.36,25.79
	c0.95,0.82,5.23-8.19,5.23-8.19l-25.7-25.79l1.9-15.96L166.47,326.77z"/>
<path class="st5" d="M199.3,379.57c0,0,7.61-1.23,7.61,3.27c0.1,3.56,0.41,7.11,0.95,10.64c0,0,1.9,14.32-4.28,12.28
	c-6.19-2.05-8.57-16.37-8.57-16.37c0.58-1.19,1.58-2.19,2.86-2.86C199.78,385.71,199.3,379.57,199.3,379.57z"/>
<polygon class="st4" points="175.51,249.41 176.94,264.56 173.13,270.29 162.66,261.69 161.71,250.23 "/>
<ellipse class="st4" cx="166.94" cy="244.5" rx="11.42" ry="9.82"/>
<polygon class="st7" points="171.7,264.15 176.46,252.28 185.03,260.47 200.73,312.45 188.83,318.59 183.6,312.04 182.65,320.63 
	159.33,316.54 157.42,261.69 162.18,255.93 "/>
<polygon class="st5" points="165.04,322.27 162.18,255.96 156,260.06 144.57,266.61 152.19,289.94 154.57,314.49 "/>
<polygon class="st5" points="147.91,267.01 144.57,266.61 135.06,290.75 116.02,311.22 123.16,317.77 145.05,299.35 153.14,284.21 
	"/>
<path class="st4" d="M199.88,311.19l-0.65,2.69c0,0-2.97,10.5,1.33,9.77c4.31-0.73,5.43-9.87,5.43-9.87l-0.69-2.55L199.88,311.19z"
	/>
<polygon class="st5" points="175.72,251.62 199.3,259.65 196.45,284.21 202.16,311.22 196.45,316.54 175.33,255.09 "/>
<path class="st5" d="M167.54,228.01l3.35-1.44v1.44l2.24-0.96v2.4c0,0,8.38,5.29,6.71,11.53c-1.68,6.25-1.68,6.73-1.68,6.73
	s-2.12-11.88-10.5-9.96c-8.38,1.92-9.06,2.27-11.29,7.56l-0.61,2.27C155.76,247.57,146.31,228.97,167.54,228.01z"/>
<polygon class="st5" points="195.97,259.65 199.78,259.65 205.97,288.3 205.97,313.27 198.35,312.04 192.17,274.38 "/>
<rect x="6.85" y="320.24" class="st2" width="140.32" height="83.86"/>
<polygon class="st1" points="287,80.29 287.99,78.8 463.99,165.66 463,167.15 "/>
<polygon class="st1" points="286.99,165.65 463,78.8 464,80.29 287.99,167.15 "/>
<polygon class="st1" points="695.79,121.43 697.2,120.21 754.2,169.24 752.79,170.45 "/>
<polygon class="st1" points="695.79,169.24 752.79,120.22 754.2,121.43 697.2,170.45 "/>
<g>
	<path class="st8" d="M763.11,173.95c-0.19-0.28-0.4-0.5-0.62-0.67l-6.12-10.44l0,0l-8.03-13.87c0.21-0.36,0.4-0.73,0.57-1.12
		c0.85-1.95,1.11-4.1,1.17-6.22c0.03-0.99,0.01-2.01-0.32-2.95c-0.39-1.1-1.18-2.02-2.03-2.82c-1.41-1.35-3.03-2.49-4.77-3.37
		c-1.24-0.63-2.56-1.13-3.7-1.92c-1.14-0.79-2.13-1.95-2.32-3.33c-0.1-0.74,0.04-1.47,0.26-2.18c0.22-0.69,0.52-1.37,0.78-2.04
		c0.61-1.61,0.98-3.32,1.11-5.04c0.7-2.95,0.59-6.1-0.39-8.97c-0.57-1.68-1.45-3.28-2.73-4.5c-1.26-1.2-2.82-2.27-4.26-3.23
		c-1.56-1.03-3.12-1.89-4.95-2.36c-2.53-0.64-5.7-0.59-7.64,1.41c-0.95,0.98-1.56,2.24-2.07,3.51c-0.9-0.3-1.91-0.37-2.81-0.06
		c-1.51,0.52-2.5,1.98-3.06,3.48c-0.7,1.89-0.87,3.96-0.52,5.94c0.14,0.78,0.33,1.67,0.67,2.43c-0.02,0-0.03-0.01-0.05-0.01
		c-0.23-0.44-0.45-0.88-0.65-1.32c-0.03,0.48-0.03,0.96-0.03,1.44c-0.09,0.05-0.17,0.12-0.25,0.2c-0.75,0.87-0.31,3.67,1.07,5.41
		c1.04,3.66,3.03,7.06,5.79,9.69c0.2,0.19,0.4,0.37,0.61,0.55v1.8l-0.05-0.07l-1.68,3.4l-8.98,5.1l-1.42,0.81l-0.36,0.21l-4.12,2.34
		c0,0,0.02,0.06,0.05,0.16l-6.87,22.14l-2.82,9.83c0,0-0.18,0.56-0.26,1.37c-0.39,1.67-0.66,3.37-0.46,5.07
		c0.57,4.73,4.31,7.77,7.92,10.34c1.67,1.19,3.34,2.37,5.02,3.54l-1.17,7.38l0.91,0.2l-0.72,5.19h43.18l-1.04-5.35l0.18-0.04
		l-0.5-2.41c0.45-0.09,1.33-0.35,1.8-1.16c0,0,1.23-0.33,1.81-1.69c0,0,2.53-3.29-0.24-7.2c3.65-1.62,9.57-4.28,12.96-5.95
		c1.13-0.56,2.19-1.28,3.05-2.2c0.63-0.67,1.49-1.67,1.55-2.63C765.74,178.97,764.67,176.24,763.11,173.95z M705.35,180.64l0.7,2.65
		l-0.36,2.24c-0.42-0.67-0.85-1.34-1.31-1.97C704.66,182.75,704.99,181.75,705.35,180.64z M746.08,183.1
		c-1.51,1.48-3.02,2.96-4.52,4.43l-0.02-0.12h-0.07l-0.86-4.11l0,0l4.3-12.85c2.03,2.24,4.63,5.14,6.51,7.39
		C749.55,179.52,747.83,181.38,746.08,183.1z"/>
	<path class="st9" d="M721.06,119.39C721.06,119.39,721.06,119.39,721.06,119.39C721.06,119.39,721.06,119.39,721.06,119.39
		c-0.01-0.09-0.03-0.17-0.04-0.26c-0.34-1.96-2.11-2.72-3.91-2.78c-1.87-0.06-2.65,0.77-2.65,0.77c0.64,1,1.59,1.5,1.59,1.5l0-0.01
		c0.4,0.31,0.81,0.54,1.23,0.7c0.42,0.16,0.84,0.26,1.24,0.31c1.39,0.18,2.53-0.17,2.53-0.17S721.06,119.43,721.06,119.39z"/>
	<path class="st10" d="M716.06,118.63L716.06,118.63l-0.77-1.37c0.59-0.18,1.12-0.26,1.61-0.27c-0.28,0.51-0.25,1.15-0.07,1.72
		c0.11,0.23,0.26,0.44,0.46,0.61c0.42,0.16,0.84,0.26,1.24,0.31c0.14-0.01,0.29-0.03,0.42-0.08c0.66-0.22,1.07-0.73,1.21-1.3
		c0.61,0.58,0.9,1.14,0.9,1.15c0,0,0,0,0,0c0,0,0,0,0,0c-0.01-0.09-0.02-0.17-0.04-0.25c-0.34-1.96-2.11-2.72-3.91-2.78
		c-1.87-0.06-2.65,0.77-2.65,0.77C715.11,118.13,716.06,118.63,716.06,118.63z"/>
	<polygon class="st9" points="731.5,136.76 729.96,133.29 729.91,133.35 728.28,135.38 723.63,141.16 717.82,133.36 717.77,133.29 
		716.09,136.69 712.99,138.45 721.99,155.4 723.86,158.94 723.86,159.39 725.41,156.41 734.67,138.57 	"/>
	<path class="st10" d="M714.44,122.76c-0.03,0-0.06,0.01-0.1,0.01c-1.22,0.1-2.21-0.53-2.93-1.45c1.04,3.66,3.03,7.06,5.79,9.69
		c0.2,0.19,0.4,0.37,0.61,0.55v-3.47C716.38,126.73,715.22,124.9,714.44,122.76z"/>
	<path class="st10" d="M711.27,115.6c-0.23-0.44-0.45-0.88-0.65-1.32c-0.03,0.48-0.03,0.96-0.03,1.44
		C710.8,115.58,711.03,115.55,711.27,115.6z"/>
	<polygon class="st10" points="724.53,145.53 726.08,143.62 732.86,140.41 731.73,137.1 731.61,137.14 731.61,137.14 732.7,140.34 
		726.03,143.51 723.66,141.41 721.27,143.53 714.81,139.45 716.11,137.03 716,136.97 716,136.97 714.65,139.5 721.28,143.68 
		722.78,145.53 721.99,155.4 723.86,158.94 723.86,159.39 725.41,156.41 	"/>
	<path class="st10" d="M741.46,187.41l0.04,0.17c0.02-0.02,0.04-0.04,0.06-0.06l-0.02-0.12H741.46z"/>
	<path class="st11" d="M763.12,173.95c-0.19-0.28-0.4-0.49-0.62-0.67l-6.12-10.44l-8.03-13.87l-2.18-3.76
		c0.01-0.04,0.02-0.06,0.02-0.06l-3.47-1.98l-7.98-4.71l-0.06,0.12l-9.27,17.85l-1.54,2.97v-0.45l-1.88-3.53l-9-16.95l-5.88,3.34
		l-1.42,0.81l-0.36,0.2l-4.12,2.34c0,0,0.01,0.06,0.04,0.16l-6.87,22.14l-2.82,9.84c0,0-0.18,0.55-0.26,1.36
		c-0.39,1.67-0.66,3.37-0.46,5.07c0.57,4.73,4.31,7.77,7.92,10.34c1.67,1.19,3.35,2.37,5.02,3.54l-1.17,7.38l0.91,0.2l-0.72,5.2
		h43.18l-1.04-5.35l0.18-0.04l-0.5-2.41c-0.17,0.03-0.28,0.04-0.28,0.04c-1.28,1.76-2.3,1.1-2.3,1.1c-2.16,1.55-2.85,0.3-2.63-0.63
		c0.22-0.93,1.69-2.71,2.18-4.89c0.49-2.18-0.83-5.22-1.62-4.66c-0.79,0.55-1.78,2.75-2.45,2.99c-1.45,0.5-1.51-1-1.19-2.24
		c0.31-1.25,1.76-3.98,2.42-4.6c0.66-0.62,2.4-1.74,2.4-1.74l4.84,2.47c0.87,0.72,1.52,1.43,2.02,2.12
		c3.65-1.62,9.57-4.28,12.96-5.95c1.13-0.56,2.19-1.28,3.05-2.2c0.63-0.67,1.49-1.67,1.55-2.62
		C765.74,178.97,764.67,176.24,763.12,173.95z M705.69,185.53c-0.42-0.67-0.85-1.34-1.31-1.97c0.28-0.81,0.61-1.81,0.97-2.92
		l0.7,2.65L705.69,185.53z M746.08,183.1c-1.51,1.48-3.02,2.96-4.53,4.43c-0.02,0.02-0.04,0.04-0.06,0.06l-0.03-0.17l-0.86-4.11v0
		l4.3-12.84c2.03,2.24,4.62,5.14,6.51,7.39C749.55,179.52,747.83,181.38,746.08,183.1z"/>
	<polygon class="st10" points="723.86,196.94 722.61,209.29 703.52,205.17 702.79,210.36 745.97,210.36 744.94,205.01 
		725.39,209.29 	"/>
	<path class="st12" d="M723.83,130.66c-1.5,0-2.93-0.43-4.22-1.2c2.78,2.06,5.68,3.84,8.67,5.92l1.63-2.02v-5.32
		C728.2,129.68,726.1,130.66,723.83,130.66z"/>
	<path class="st10" d="M712.51,118.78c-0.6-0.53-1.26-1.1-1.53-1.29l-0.1,0.15c0.21,0.14,0.7,0.57,1.21,1.01c0,0.05,0,0.1,0,0.15
		c0,1.3,0.73,2.18,0.74,2.19l0.14-0.11l0,0l-0.03-0.04c-0.13-0.18-0.67-0.96-0.67-2.04c0.05,0.04,0.09,0.08,0.14,0.12
		c0.3,0.26,0.58,0.52,0.79,0.71c0.21,0.19,0.34,0.31,0.34,0.31l0.12-0.13h0C713.65,119.79,713.11,119.31,712.51,118.78z"/>
	<path class="st10" d="M722.45,123.03c0.02-0.03,0.28-0.3,0.67-0.3c0.16,0,0.36,0.05,0.58,0.19l0.14,0.09v-0.02l0.01,0.01
		c0.25-0.23,0.49-0.3,0.7-0.3c0.17,0,0.32,0.05,0.43,0.1c0.05,0.02,0.1,0.05,0.13,0.07l0.03,0.02l0.01,0.01l0.11-0.14h0
		c-0.01,0-0.3-0.23-0.71-0.23c-0.22,0-0.46,0.07-0.71,0.26v-6.09h-0.18l0,6.02c-0.19-0.1-0.38-0.14-0.54-0.14
		c-0.5,0-0.8,0.36-0.8,0.37L722.45,123.03L722.45,123.03z"/>
	<path class="st10" d="M726.99,124.54L726.99,124.54l-0.01,0.01c-0.12,0.07-1.19,0.71-3.03,0.71c-0.89,0-1.95-0.15-3.17-0.58
		l-0.06,0.17c1.24,0.44,2.32,0.59,3.23,0.59c2.01,0,3.13-0.74,3.14-0.75L726.99,124.54z"/>
	<path class="st10" d="M723.85,125.99c-0.33,0-0.58-0.05-0.76-0.09c-0.09-0.02-0.15-0.04-0.19-0.06l-0.05-0.02l-0.01-0.01
		l-0.08,0.16l0,0c0.01,0,0.4,0.19,1.09,0.19c0.34,0,0.76-0.05,1.24-0.19l-0.05-0.17C724.58,125.95,724.18,125.99,723.85,125.99z"/>
	<path class="st10" d="M720.77,117.3c0.2,0.22,0.33,0.44,0.42,0.6c0.04,0.08,0.07,0.15,0.09,0.19l0.02,0.05l0.01,0.02l0.17-0.05h0
		c0-0.01-0.15-0.45-0.57-0.92c-0.42-0.47-1.13-0.98-2.24-1.1l-0.02,0.18C719.71,116.38,720.37,116.86,720.77,117.3z"/>
	<path class="st10" d="M713.61,117.32c0,0,0.51-0.61,1.2-1.62c1.35,0.09,5.7-0.06,6.35-0.2c0.67-0.15,0.87-0.46,0.87-0.46
		c1.11-1.07-3.6-0.72-5.21-0.51c-0.77,0.1-1.29,0.36-1.63,0.61c1.45-2.24,3.35-5.87,3.22-9.31c0.01,0.24,0.7,0.92,0.85,1.22
		c0.4,0.86,0.77,1.73,1.15,2.6c0.77,1.73,1.55,3.46,2.5,5.1c1.48,2.56,3.38,4.94,5.9,6.48c1.34,0.82,2.83,1.37,4.37,1.65
		c-0.76,2.06-1.89,3.83-3.27,5.16v5.32l0.05-0.06l1.55,3.46l3.17,1.81l0.06-0.12l7.99,4.71v0l3.46,1.98c0,0-0.01,0.02-0.02,0.06
		l2.18,3.76c0.21-0.36,0.4-0.73,0.57-1.12c0.85-1.95,1.11-4.1,1.17-6.22c0.03-0.99,0.01-2.01-0.32-2.95
		c-0.39-1.1-1.18-2.02-2.03-2.82c-1.41-1.35-3.03-2.49-4.77-3.37c-1.24-0.63-2.56-1.13-3.7-1.92c-1.14-0.79-2.13-1.95-2.32-3.33
		c-0.1-0.74,0.04-1.47,0.26-2.18c0.22-0.69,0.52-1.37,0.78-2.04c0.61-1.61,0.98-3.32,1.11-5.04c0.7-2.95,0.59-6.1-0.39-8.97
		c-0.57-1.68-1.45-3.28-2.73-4.5c-1.26-1.2-2.82-2.27-4.26-3.23c-1.56-1.03-3.12-1.89-4.95-2.36c-2.53-0.64-5.7-0.59-7.64,1.41
		c-0.95,0.98-1.56,2.24-2.07,3.51c-0.9-0.3-1.91-0.37-2.81-0.06c-1.51,0.52-2.5,1.98-3.06,3.48c-0.7,1.89-0.87,3.96-0.52,5.94
		c0.14,0.78,0.33,1.67,0.67,2.43c0.09,0.2,0.19,0.39,0.3,0.57C712.06,116.88,712.86,117,713.61,117.32z"/>
	<path class="st10" d="M744.23,197.38l-0.16-0.01c-0.11,2.03-0.61,3.5-1.09,4.46c-0.24,0.48-0.47,0.84-0.63,1.07
		c-0.08,0.12-0.15,0.2-0.2,0.26c-0.02,0.03-0.04,0.05-0.06,0.06l-0.02,0.02l0.11,0.11C742.19,203.35,744,201.47,744.23,197.38z"/>
	<polygon class="st10" points="742.18,203.36 742.18,203.36 742.18,203.36 	"/>
	<path class="st10" d="M745.22,200.96c-0.21,0.41-0.4,0.72-0.55,0.93c-0.07,0.11-0.13,0.18-0.18,0.24
		c-0.04,0.05-0.06,0.08-0.06,0.08l0.12,0.11c0.01-0.01,1.57-1.79,1.79-4.86l-0.16-0.01C746.07,198.96,745.63,200.15,745.22,200.96z"
		/>
	<polygon class="st10" points="744.55,202.32 744.55,202.32 744.55,202.32 	"/>
	<path class="st10" d="M747.08,199.89c-0.13,0.32-0.27,0.59-0.36,0.77c-0.05,0.09-0.09,0.16-0.12,0.21
		c-0.03,0.05-0.04,0.07-0.04,0.07l0.13,0.09c0-0.01,1.06-1.61,1.14-3.69l-0.16-0.01C747.63,198.34,747.35,199.24,747.08,199.89z"/>
	<polygon class="st10" points="746.69,201.02 746.69,201.02 746.69,201.02 	"/>
	<path class="st10" d="M746.12,146.59L746.12,146.59c0,0.02-0.01,0.05-0.01,0.1c-0.12,1.6-1.24,23.32-1.24,23.32l0.13,0.01
		c0,0,0.07-1.45,0.19-3.62l6.3-1.6l-0.03-0.12l-6.27,1.59c0.03-0.65,0.07-1.36,0.11-2.12c0.11-0.15,1.09-1.44,2.07-2.77
		c0.53-0.71,1.06-1.42,1.46-1.98c0.2-0.28,0.38-0.52,0.5-0.7c0.06-0.09,0.11-0.17,0.15-0.23c0.04-0.06,0.06-0.1,0.08-0.13
		l-0.12-0.05l0,0c0,0.01-0.03,0.05-0.06,0.11c-0.28,0.43-1.33,1.86-2.31,3.17c-0.49,0.66-0.96,1.29-1.31,1.75
		c-0.2,0.26-0.35,0.47-0.45,0.6c0.16-2.99,0.35-6.63,0.51-9.79c0.11-2.05,0.21-3.91,0.28-5.26c0.04-0.68,0.07-1.23,0.09-1.62
		c0.01-0.19,0.02-0.35,0.03-0.46c0-0.05,0.01-0.1,0.01-0.13l0-0.04l0-0.01l0,0l-0.01,0L746.12,146.59z"/>
	<path class="st10" d="M702.65,166.4c0.11,2.17,0.19,3.62,0.19,3.62l0.13-0.01c0,0-0.3-5.79-0.6-11.61
		c-0.15-2.91-0.31-5.83-0.43-8.04c-0.06-1.1-0.11-2.03-0.15-2.69c-0.02-0.33-0.03-0.59-0.05-0.78c-0.01-0.09-0.01-0.16-0.01-0.22
		c0-0.05-0.01-0.08-0.01-0.1l-0.12,0.03h0l0,0l0,0c0.01,0.04,0.03,0.46,0.07,1.12c0.14,2.34,0.43,7.91,0.69,12.9
		c0.06,1.14,0.12,2.25,0.17,3.28c-0.11-0.15-0.29-0.39-0.52-0.7c-0.58-0.78-1.47-1.95-2.21-2.97c-0.37-0.51-0.71-0.97-0.97-1.32
		c-0.13-0.18-0.23-0.33-0.31-0.44c-0.08-0.11-0.12-0.19-0.13-0.21l-0.12,0.05h0c0.01,0.03,0.04,0.07,0.08,0.13
		c0.55,0.85,3.97,5.39,4.19,5.68c0.04,0.76,0.08,1.47,0.11,2.12l-6.27-1.59l-0.03,0.12L702.65,166.4z"/>
	<polygon class="st10" points="723.93,185.44 732.78,185.72 732.79,185.59 723.93,185.31 723.93,181.76 735.62,178.85 
		735.59,178.73 723.93,181.64 723.93,160.02 723.8,160.02 723.8,181.67 713.83,184.15 713.86,184.27 723.8,181.8 723.8,185.31 
		718.53,185.14 718.53,185.26 723.8,185.43 723.8,196.18 723.93,196.18 	"/>
</g>
<g>
	<path class="st8" d="M352.7,162.13c-0.19-0.28-0.4-0.5-0.62-0.67l-6.12-10.44l0,0l-8.03-13.87c0.21-0.36,0.4-0.73,0.57-1.12
		c0.85-1.95,1.11-4.1,1.17-6.22c0.03-0.99,0.01-2.01-0.32-2.95c-0.39-1.1-1.18-2.02-2.03-2.82c-1.41-1.35-3.03-2.49-4.77-3.37
		c-1.24-0.63-2.56-1.13-3.7-1.92c-1.14-0.79-2.13-1.95-2.32-3.33c-0.1-0.74,0.04-1.47,0.26-2.18c0.22-0.69,0.52-1.37,0.78-2.04
		c0.61-1.61,0.98-3.32,1.11-5.04c0.7-2.95,0.59-6.1-0.39-8.97c-0.57-1.68-1.45-3.28-2.73-4.5c-1.26-1.2-2.82-2.27-4.26-3.23
		c-1.56-1.03-3.12-1.89-4.95-2.36c-2.53-0.64-5.7-0.59-7.64,1.41c-0.95,0.98-1.56,2.24-2.07,3.51c-0.9-0.3-1.91-0.37-2.81-0.06
		c-1.51,0.52-2.5,1.98-3.06,3.48c-0.7,1.89-0.87,3.96-0.52,5.94c0.14,0.78,0.33,1.67,0.67,2.43c-0.02,0-0.03-0.01-0.05-0.01
		c-0.23-0.44-0.45-0.88-0.65-1.32c-0.03,0.48-0.03,0.96-0.03,1.44c-0.09,0.05-0.17,0.12-0.25,0.2c-0.75,0.87-0.31,3.67,1.07,5.41
		c1.04,3.66,3.03,7.06,5.79,9.69c0.2,0.19,0.4,0.37,0.61,0.55v1.8l-0.05-0.07l-1.68,3.4l-8.98,5.1l-1.42,0.81l-0.36,0.21l-4.12,2.34
		c0,0,0.02,0.06,0.05,0.16l-6.87,22.14l-2.82,9.83c0,0-0.18,0.56-0.26,1.37c-0.39,1.67-0.66,3.37-0.46,5.07
		c0.57,4.73,4.31,7.77,7.92,10.34c1.67,1.19,3.34,2.37,5.02,3.54l-1.17,7.38l0.91,0.2l-0.72,5.19h43.18l-1.04-5.35l0.18-0.04
		l-0.5-2.41c0.45-0.09,1.33-0.35,1.8-1.16c0,0,1.23-0.33,1.81-1.69c0,0,2.53-3.29-0.24-7.2c3.65-1.62,9.57-4.28,12.96-5.95
		c1.13-0.56,2.19-1.28,3.05-2.2c0.63-0.67,1.49-1.67,1.55-2.63C355.33,167.15,354.26,164.42,352.7,162.13z M294.94,168.82l0.7,2.65
		l-0.36,2.24c-0.42-0.67-0.85-1.34-1.31-1.97C294.25,170.93,294.58,169.93,294.94,168.82z M335.66,171.28
		c-1.51,1.48-3.02,2.96-4.52,4.43l-0.02-0.12h-0.07l-0.86-4.11l0,0l4.3-12.85c2.03,2.24,4.63,5.14,6.51,7.39
		C339.14,167.7,337.42,169.56,335.66,171.28z"/>
	<path class="st9" d="M310.65,107.57C310.65,107.57,310.65,107.57,310.65,107.57C310.65,107.57,310.65,107.57,310.65,107.57
		c-0.01-0.09-0.03-0.17-0.04-0.26c-0.34-1.96-2.11-2.72-3.91-2.78c-1.87-0.06-2.65,0.77-2.65,0.77c0.64,1,1.59,1.5,1.59,1.5l0-0.01
		c0.4,0.31,0.81,0.54,1.23,0.7c0.42,0.16,0.84,0.26,1.24,0.31c1.39,0.18,2.53-0.17,2.53-0.17S310.65,107.61,310.65,107.57z"/>
	<path class="st10" d="M305.65,106.81L305.65,106.81l-0.77-1.37c0.59-0.18,1.12-0.26,1.61-0.27c-0.28,0.51-0.25,1.15-0.07,1.72
		c0.11,0.23,0.26,0.44,0.46,0.61c0.42,0.16,0.84,0.26,1.24,0.31c0.14-0.01,0.29-0.03,0.42-0.08c0.66-0.22,1.07-0.73,1.21-1.3
		c0.61,0.58,0.9,1.14,0.9,1.15c0,0,0,0,0,0c0,0,0,0,0,0c-0.01-0.09-0.02-0.17-0.04-0.25c-0.34-1.96-2.11-2.72-3.91-2.78
		c-1.87-0.06-2.65,0.77-2.65,0.77C304.7,106.31,305.65,106.81,305.65,106.81z"/>
	<polygon class="st9" points="321.09,124.94 319.55,121.47 319.5,121.53 317.87,123.56 313.22,129.34 307.4,121.54 307.35,121.47 
		305.67,124.87 302.58,126.63 311.58,143.58 313.45,147.12 313.45,147.57 315,144.59 324.26,126.75 	"/>
	<path class="st10" d="M304.03,110.94c-0.03,0-0.06,0.01-0.1,0.01c-1.22,0.1-2.21-0.53-2.93-1.45c1.04,3.66,3.03,7.06,5.79,9.69
		c0.2,0.19,0.4,0.37,0.61,0.55v-3.47C305.97,114.91,304.8,113.08,304.03,110.94z"/>
	<path class="st10" d="M300.86,103.78c-0.23-0.44-0.45-0.88-0.65-1.32c-0.03,0.48-0.03,0.96-0.03,1.44
		C300.39,103.76,300.62,103.73,300.86,103.78z"/>
	<polygon class="st10" points="314.12,133.71 315.67,131.8 322.45,128.59 321.32,125.28 321.2,125.32 321.2,125.32 322.29,128.52 
		315.61,131.69 313.24,129.59 310.86,131.71 304.4,127.63 305.7,125.21 305.59,125.15 305.59,125.15 304.23,127.68 310.87,131.86 
		312.37,133.71 311.58,143.58 313.45,147.12 313.45,147.57 315,144.59 	"/>
	<path class="st10" d="M331.05,175.59l0.04,0.17c0.02-0.02,0.04-0.04,0.06-0.06l-0.02-0.12H331.05z"/>
	<path class="st11" d="M352.7,162.13c-0.19-0.28-0.4-0.49-0.62-0.67l-6.12-10.44l-8.03-13.87l-2.18-3.76
		c0.01-0.04,0.02-0.06,0.02-0.06l-3.47-1.98l-7.98-4.71l-0.06,0.12l-9.27,17.85l-1.54,2.97v-0.45l-1.88-3.53l-9-16.95l-5.88,3.34
		l-1.42,0.81l-0.36,0.2l-4.12,2.34c0,0,0.01,0.06,0.04,0.16l-6.87,22.14l-2.82,9.84c0,0-0.18,0.55-0.26,1.36
		c-0.39,1.67-0.66,3.37-0.46,5.07c0.57,4.73,4.31,7.77,7.92,10.34c1.67,1.19,3.35,2.37,5.02,3.54l-1.17,7.38l0.91,0.2l-0.72,5.2
		h43.18l-1.04-5.35l0.18-0.04l-0.5-2.41c-0.17,0.03-0.28,0.04-0.28,0.04c-1.28,1.76-2.3,1.1-2.3,1.1c-2.16,1.55-2.85,0.3-2.63-0.63
		c0.22-0.93,1.69-2.71,2.18-4.89c0.49-2.18-0.83-5.22-1.62-4.66c-0.79,0.55-1.78,2.75-2.45,2.99c-1.45,0.5-1.51-1-1.19-2.24
		c0.31-1.25,1.76-3.98,2.42-4.6c0.66-0.62,2.4-1.74,2.4-1.74l4.84,2.47c0.87,0.72,1.52,1.43,2.02,2.12
		c3.65-1.62,9.57-4.28,12.96-5.95c1.13-0.56,2.19-1.28,3.05-2.2c0.63-0.67,1.49-1.67,1.55-2.62
		C355.33,167.15,354.26,164.42,352.7,162.13z M295.28,173.71c-0.42-0.67-0.85-1.34-1.31-1.97c0.28-0.81,0.61-1.81,0.97-2.92
		l0.7,2.65L295.28,173.71z M335.66,171.28c-1.51,1.48-3.02,2.96-4.53,4.43c-0.02,0.02-0.04,0.04-0.06,0.06l-0.03-0.17l-0.86-4.11v0
		l4.3-12.84c2.03,2.24,4.62,5.14,6.51,7.39C339.14,167.7,337.42,169.56,335.66,171.28z"/>
	<polygon class="st10" points="313.45,185.12 312.2,197.47 293.1,193.35 292.38,198.54 335.56,198.54 334.52,193.19 314.98,197.47 	
		"/>
	<path class="st12" d="M313.42,118.84c-1.5,0-2.93-0.43-4.22-1.2c2.78,2.06,5.68,3.84,8.67,5.92l1.63-2.02v-5.32
		C317.79,117.86,315.69,118.84,313.42,118.84z"/>
	<path class="st10" d="M302.1,106.96c-0.6-0.53-1.26-1.1-1.53-1.29l-0.1,0.15c0.21,0.14,0.7,0.57,1.21,1.01c0,0.05,0,0.1,0,0.15
		c0,1.3,0.73,2.18,0.74,2.19l0.14-0.11l0,0l-0.03-0.04c-0.13-0.18-0.67-0.96-0.67-2.04c0.05,0.04,0.09,0.08,0.14,0.12
		c0.3,0.26,0.58,0.52,0.79,0.71c0.21,0.19,0.34,0.31,0.34,0.31l0.12-0.13h0C303.23,107.97,302.7,107.49,302.1,106.96z"/>
	<path class="st10" d="M312.04,111.21c0.02-0.03,0.28-0.3,0.67-0.3c0.16,0,0.36,0.05,0.58,0.19l0.14,0.09v-0.02l0.01,0.01
		c0.25-0.23,0.49-0.3,0.7-0.3c0.17,0,0.32,0.05,0.43,0.1c0.05,0.02,0.1,0.05,0.13,0.07l0.03,0.02l0.01,0.01l0.11-0.14h0
		c-0.01,0-0.3-0.23-0.71-0.23c-0.21,0-0.46,0.07-0.71,0.26v-6.09h-0.18l0,6.02c-0.19-0.1-0.37-0.14-0.54-0.14
		c-0.5,0-0.8,0.36-0.8,0.37L312.04,111.21L312.04,111.21z"/>
	<path class="st10" d="M316.58,112.72L316.58,112.72l-0.01,0.01c-0.12,0.07-1.19,0.71-3.03,0.71c-0.89,0-1.95-0.15-3.17-0.58
		l-0.06,0.17c1.24,0.44,2.32,0.59,3.23,0.59c2.01,0,3.13-0.74,3.14-0.75L316.58,112.72z"/>
	<path class="st10" d="M313.44,114.17c-0.33,0-0.58-0.05-0.76-0.09c-0.09-0.02-0.15-0.04-0.19-0.06l-0.05-0.02l-0.01-0.01
		l-0.08,0.16l0,0c0.01,0,0.4,0.19,1.09,0.19c0.34,0,0.76-0.05,1.24-0.19l-0.05-0.17C314.17,114.13,313.77,114.17,313.44,114.17z"/>
	<path class="st10" d="M310.36,105.48c0.2,0.22,0.33,0.44,0.42,0.6c0.04,0.08,0.07,0.15,0.09,0.19l0.02,0.05l0.01,0.02l0.17-0.05h0
		c0-0.01-0.15-0.45-0.57-0.92c-0.42-0.47-1.13-0.98-2.24-1.1l-0.02,0.18C309.3,104.56,309.96,105.04,310.36,105.48z"/>
	<path class="st10" d="M303.2,105.51c0,0,0.51-0.61,1.2-1.62c1.35,0.09,5.7-0.06,6.35-0.2c0.67-0.15,0.87-0.46,0.87-0.46
		c1.11-1.07-3.6-0.72-5.21-0.51c-0.77,0.1-1.29,0.36-1.63,0.61c1.45-2.24,3.35-5.87,3.22-9.31c0.01,0.24,0.7,0.92,0.85,1.22
		c0.4,0.86,0.77,1.73,1.15,2.6c0.77,1.73,1.55,3.46,2.5,5.1c1.48,2.56,3.38,4.94,5.9,6.48c1.34,0.82,2.83,1.37,4.37,1.65
		c-0.76,2.06-1.89,3.83-3.27,5.16v5.32l0.05-0.06l1.55,3.46l3.17,1.81l0.06-0.12l7.99,4.71v0l3.46,1.98c0,0-0.01,0.02-0.02,0.06
		l2.18,3.76c0.21-0.36,0.4-0.73,0.57-1.12c0.85-1.95,1.11-4.1,1.17-6.22c0.03-0.99,0.01-2.01-0.32-2.95
		c-0.39-1.1-1.18-2.02-2.03-2.82c-1.41-1.35-3.03-2.49-4.77-3.37c-1.24-0.63-2.56-1.13-3.7-1.92c-1.14-0.79-2.13-1.95-2.32-3.33
		c-0.1-0.74,0.04-1.47,0.26-2.18c0.22-0.69,0.52-1.37,0.78-2.04c0.61-1.61,0.98-3.32,1.11-5.04c0.7-2.95,0.59-6.1-0.39-8.97
		c-0.57-1.68-1.45-3.28-2.73-4.5c-1.26-1.2-2.82-2.27-4.26-3.23c-1.56-1.03-3.12-1.89-4.95-2.36c-2.53-0.64-5.7-0.59-7.64,1.41
		c-0.95,0.98-1.56,2.24-2.07,3.51c-0.9-0.3-1.91-0.37-2.81-0.06c-1.51,0.52-2.5,1.98-3.06,3.48c-0.7,1.89-0.87,3.96-0.52,5.94
		c0.14,0.78,0.33,1.67,0.67,2.43c0.09,0.2,0.19,0.39,0.3,0.57C301.65,105.06,302.45,105.18,303.2,105.51z"/>
	<path class="st10" d="M333.82,185.56l-0.16-0.01c-0.11,2.03-0.61,3.5-1.09,4.46c-0.24,0.48-0.47,0.84-0.63,1.07
		c-0.08,0.12-0.15,0.2-0.2,0.26c-0.02,0.03-0.04,0.05-0.06,0.06l-0.02,0.02l0.11,0.11C331.78,191.53,333.59,189.65,333.82,185.56z"
		/>
	<polygon class="st10" points="331.77,191.54 331.77,191.54 331.77,191.54 	"/>
	<path class="st10" d="M334.81,189.14c-0.21,0.41-0.4,0.72-0.55,0.93c-0.07,0.11-0.13,0.18-0.18,0.24
		c-0.04,0.05-0.06,0.08-0.06,0.08l0.12,0.11c0.01-0.01,1.57-1.79,1.79-4.86l-0.16-0.01C335.66,187.14,335.22,188.33,334.81,189.14z"
		/>
	<polygon class="st10" points="334.14,190.5 334.14,190.5 334.14,190.5 	"/>
	<path class="st10" d="M336.67,188.07c-0.13,0.32-0.27,0.59-0.36,0.77c-0.05,0.09-0.09,0.16-0.12,0.21
		c-0.03,0.05-0.04,0.07-0.04,0.07l0.13,0.09c0-0.01,1.06-1.61,1.14-3.69l-0.16-0.01C337.21,186.52,336.94,187.42,336.67,188.07z"/>
	<polygon class="st10" points="336.27,189.2 336.27,189.2 336.27,189.2 	"/>
	<path class="st10" d="M335.71,134.77L335.71,134.77c0,0.02-0.01,0.05-0.01,0.1c-0.12,1.6-1.24,23.32-1.24,23.32l0.13,0.01
		c0,0,0.07-1.45,0.19-3.62l6.3-1.6l-0.03-0.12l-6.27,1.59c0.03-0.65,0.07-1.36,0.11-2.12c0.11-0.15,1.09-1.44,2.07-2.77
		c0.53-0.71,1.06-1.42,1.46-1.98c0.2-0.28,0.38-0.52,0.5-0.7c0.06-0.09,0.11-0.17,0.15-0.23c0.04-0.06,0.06-0.1,0.08-0.13
		l-0.12-0.05l0,0c0,0.01-0.03,0.05-0.06,0.11c-0.28,0.43-1.33,1.86-2.31,3.17c-0.49,0.66-0.96,1.29-1.31,1.75
		c-0.2,0.26-0.35,0.47-0.45,0.6c0.16-2.99,0.35-6.63,0.51-9.79c0.11-2.05,0.21-3.91,0.28-5.26c0.04-0.68,0.07-1.23,0.09-1.62
		c0.01-0.19,0.02-0.35,0.03-0.46c0-0.05,0.01-0.1,0.01-0.13l0-0.04l0-0.01l0,0l-0.01,0L335.71,134.77z"/>
	<path class="st10" d="M292.24,154.58c0.11,2.17,0.19,3.62,0.19,3.62l0.13-0.01c0,0-0.3-5.79-0.6-11.61
		c-0.15-2.91-0.31-5.83-0.43-8.04c-0.06-1.1-0.11-2.03-0.15-2.69c-0.02-0.33-0.03-0.59-0.05-0.78c-0.01-0.09-0.01-0.16-0.01-0.22
		c0-0.05-0.01-0.08-0.01-0.1l-0.12,0.03h0l0,0l0,0c0.01,0.04,0.03,0.46,0.07,1.12c0.14,2.34,0.43,7.91,0.69,12.9
		c0.06,1.14,0.12,2.25,0.17,3.28c-0.11-0.15-0.29-0.39-0.52-0.7c-0.58-0.78-1.46-1.95-2.21-2.97c-0.37-0.51-0.71-0.97-0.97-1.32
		c-0.13-0.18-0.23-0.33-0.31-0.44c-0.08-0.11-0.12-0.19-0.13-0.21l-0.12,0.05h0c0.01,0.03,0.04,0.07,0.08,0.13
		c0.55,0.85,3.97,5.39,4.19,5.68c0.04,0.76,0.08,1.47,0.11,2.12l-6.27-1.59l-0.03,0.12L292.24,154.58z"/>
	<polygon class="st10" points="313.51,173.62 322.37,173.9 322.37,173.77 313.51,173.49 313.51,169.94 325.21,167.03 325.18,166.91 
		313.51,169.82 313.51,148.2 313.39,148.2 313.39,169.85 303.41,172.33 303.44,172.45 313.39,169.98 313.39,173.49 308.12,173.32 
		308.12,173.44 313.39,173.61 313.39,184.36 313.51,184.36 	"/>
</g>
<g>
	<defs>
		<circle id="SVGID_1_" cx="79.87" cy="361.55" r="27.41"/>
	</defs>
	<use xlink:href="#SVGID_1_"  style="overflow:visible;fill:#FFFFFF;"/>
	<clipPath id="SVGID_2_">
		<use xlink:href="#SVGID_1_"  style="overflow:visible;"/>
	</clipPath>
	<g class="st13">
		<path class="st8" d="M103.3,381.26c-0.11-0.17-0.24-0.3-0.37-0.41l-3.68-6.27l0,0l-4.83-8.34c0.12-0.22,0.24-0.44,0.34-0.67
			c0.51-1.17,0.67-2.47,0.7-3.74c0.02-0.6,0.01-1.21-0.19-1.77c-0.23-0.66-0.71-1.21-1.22-1.7c-0.85-0.81-1.82-1.5-2.87-2.03
			c-0.75-0.38-1.54-0.68-2.22-1.16c-0.69-0.48-1.28-1.17-1.39-2c-0.06-0.45,0.02-0.88,0.16-1.31c0.13-0.42,0.31-0.82,0.47-1.23
			c0.37-0.97,0.59-1.99,0.67-3.03c0.42-1.77,0.36-3.66-0.24-5.39c-0.35-1.01-0.87-1.97-1.64-2.71c-0.76-0.72-1.7-1.37-2.56-1.94
			c-0.94-0.62-1.88-1.14-2.97-1.42c-1.52-0.39-3.42-0.35-4.59,0.85c-0.57,0.59-0.94,1.35-1.24,2.11c-0.54-0.18-1.15-0.22-1.69-0.04
			c-0.91,0.31-1.5,1.19-1.84,2.09c-0.42,1.13-0.52,2.38-0.31,3.57c0.08,0.47,0.2,1,0.41,1.46c-0.01,0-0.02,0-0.03-0.01
			c-0.14-0.26-0.27-0.53-0.39-0.8c-0.02,0.29-0.02,0.58-0.02,0.86c-0.05,0.03-0.1,0.07-0.15,0.12c-0.45,0.52-0.19,2.2,0.64,3.25
			c0.63,2.2,1.82,4.24,3.48,5.83c0.12,0.11,0.24,0.22,0.37,0.33v1.08l-0.03-0.04l-1.01,2.04l-5.39,3.06l-0.85,0.48l-0.22,0.12
			l-2.48,1.41c0,0,0.01,0.03,0.03,0.1L62,377.35l-1.7,5.91c0,0-0.11,0.33-0.16,0.82c-0.24,1-0.4,2.03-0.28,3.05
			c0.34,2.84,2.59,4.67,4.76,6.21c1,0.71,2.01,1.42,3.02,2.13l-0.7,4.43l0.55,0.12l-0.43,3.12H93l-0.62-3.22l0.11-0.02l-0.3-1.45
			c0.27-0.05,0.8-0.21,1.08-0.7c0,0,0.74-0.2,1.09-1.02c0,0,1.52-1.98-0.14-4.33c2.19-0.97,5.75-2.57,7.79-3.58
			c0.68-0.34,1.32-0.77,1.84-1.32c0.38-0.4,0.9-1,0.93-1.58C104.88,384.28,104.24,382.64,103.3,381.26z M68.59,385.29l0.42,1.59
			l-0.21,1.35c-0.25-0.4-0.51-0.8-0.79-1.18C68.17,386.55,68.37,385.95,68.59,385.29z M93.06,386.76c-0.91,0.89-1.81,1.78-2.72,2.66
			l-0.01-0.07h-0.04l-0.52-2.47l0,0l2.58-7.72c1.22,1.35,2.78,3.09,3.91,4.44C95.15,384.61,94.12,385.73,93.06,386.76z"/>
		<path class="st9" d="M78.03,348.47C78.03,348.47,78.03,348.47,78.03,348.47C78.03,348.47,78.03,348.47,78.03,348.47
			c-0.01-0.06-0.02-0.1-0.02-0.15c-0.2-1.18-1.27-1.63-2.35-1.67c-1.12-0.04-1.59,0.46-1.59,0.46c0.39,0.6,0.96,0.9,0.96,0.9l0,0
			c0.24,0.19,0.49,0.32,0.74,0.42c0.25,0.1,0.51,0.15,0.75,0.18c0.84,0.11,1.52-0.1,1.52-0.1S78.03,348.49,78.03,348.47z"/>
		<path class="st10" d="M75.02,348.01L75.02,348.01l-0.46-0.82c0.35-0.11,0.67-0.16,0.97-0.16c-0.17,0.3-0.15,0.69-0.04,1.03
			c0.06,0.14,0.16,0.26,0.28,0.37c0.25,0.1,0.51,0.15,0.75,0.18c0.09,0,0.17-0.02,0.25-0.05c0.4-0.13,0.64-0.44,0.73-0.78
			c0.37,0.35,0.54,0.69,0.54,0.69c0,0,0,0,0,0c0,0,0,0,0,0c-0.01-0.05-0.01-0.1-0.02-0.15c-0.2-1.18-1.27-1.63-2.35-1.67
			c-1.12-0.04-1.59,0.46-1.59,0.46C74.45,347.71,75.02,348.01,75.02,348.01z"/>
		<polygon class="st9" points="84.3,358.91 83.37,356.83 83.34,356.86 82.37,358.08 79.57,361.56 76.08,356.87 76.05,356.83 
			75.04,358.87 73.18,359.93 78.58,370.11 79.71,372.24 79.71,372.51 80.64,370.72 86.21,360 		"/>
		<path class="st10" d="M74.05,350.49c-0.02,0-0.04,0.01-0.06,0.01c-0.73,0.06-1.33-0.32-1.76-0.87c0.63,2.2,1.82,4.24,3.48,5.83
			c0.12,0.11,0.24,0.22,0.37,0.33v-2.09C75.22,352.88,74.51,351.78,74.05,350.49z"/>
		<path class="st10" d="M72.14,346.19c-0.14-0.26-0.27-0.53-0.39-0.8c-0.02,0.29-0.02,0.58-0.02,0.86
			C71.86,346.18,72,346.16,72.14,346.19z"/>
		<polygon class="st10" points="80.11,364.18 81.04,363.03 85.12,361.1 84.44,359.12 84.37,359.14 84.37,359.14 85.02,361.06 
			81.01,362.97 79.59,361.7 78.15,362.98 74.27,360.53 75.05,359.07 74.98,359.04 74.98,359.04 74.17,360.56 78.16,363.07 
			79.06,364.18 78.58,370.11 79.71,372.24 79.71,372.51 80.64,370.72 		"/>
		<path class="st10" d="M90.29,389.35l0.02,0.1c0.01-0.01,0.02-0.02,0.03-0.03l-0.01-0.07H90.29z"/>
		<path class="st11" d="M103.3,381.26c-0.11-0.17-0.24-0.3-0.37-0.4l-3.68-6.27l-4.83-8.34l-1.31-2.26
			c0.01-0.02,0.01-0.04,0.01-0.04l-2.08-1.19l-4.8-2.83L86.21,360l-5.57,10.73l-0.93,1.79v-0.27l-1.13-2.12l-5.41-10.19l-3.54,2.01
			l-0.85,0.48l-0.22,0.12l-2.48,1.41c0,0,0.01,0.03,0.03,0.1L62,377.35l-1.7,5.91c0,0-0.11,0.33-0.16,0.82
			c-0.24,1-0.4,2.03-0.28,3.05c0.34,2.84,2.59,4.67,4.76,6.21c1,0.72,2.01,1.42,3.02,2.13l-0.7,4.43l0.55,0.12l-0.44,3.12H93
			l-0.62-3.22l0.11-0.02l-0.3-1.45c-0.1,0.02-0.17,0.02-0.17,0.02c-0.77,1.06-1.38,0.66-1.38,0.66c-1.3,0.93-1.71,0.18-1.58-0.38
			c0.13-0.56,1.02-1.63,1.31-2.94c0.29-1.31-0.5-3.13-0.97-2.8c-0.47,0.33-1.07,1.66-1.48,1.8c-0.87,0.3-0.91-0.6-0.72-1.35
			c0.19-0.75,1.06-2.39,1.45-2.77c0.4-0.37,1.44-1.05,1.44-1.05l2.91,1.49c0.52,0.43,0.92,0.86,1.21,1.27
			c2.19-0.97,5.75-2.57,7.79-3.58c0.68-0.33,1.31-0.77,1.83-1.32c0.38-0.4,0.9-1,0.93-1.58
			C104.88,384.28,104.24,382.64,103.3,381.26z M68.79,388.23c-0.25-0.4-0.51-0.8-0.79-1.18c0.17-0.49,0.37-1.09,0.58-1.76l0.42,1.59
			L68.79,388.23z M93.06,386.76c-0.91,0.89-1.81,1.78-2.72,2.66c-0.01,0.01-0.02,0.02-0.03,0.03l-0.02-0.1l-0.52-2.47v0l2.58-7.72
			c1.22,1.35,2.78,3.09,3.91,4.44C95.15,384.61,94.12,385.73,93.06,386.76z"/>
		<polygon class="st10" points="79.71,395.08 78.96,402.51 67.48,400.02 67.05,403.15 93,403.15 92.38,399.93 80.63,402.51 		"/>
		<path class="st12" d="M79.69,355.24c-0.9,0-1.76-0.26-2.54-0.72c1.67,1.24,3.41,2.31,5.21,3.56l0.98-1.22v-3.2
			C82.32,354.66,81.06,355.24,79.69,355.24z"/>
		<path class="st10" d="M72.89,348.1c-0.36-0.32-0.76-0.66-0.92-0.78l-0.06,0.09c0.12,0.09,0.42,0.34,0.73,0.61
			c0,0.03,0,0.06,0,0.09c0,0.78,0.44,1.31,0.44,1.32l0.08-0.07h0l-0.02-0.02c-0.08-0.11-0.4-0.58-0.4-1.22
			c0.03,0.02,0.05,0.05,0.08,0.07c0.18,0.16,0.35,0.31,0.48,0.42c0.13,0.11,0.21,0.19,0.21,0.19l0.07-0.08h0
			C73.57,348.71,73.25,348.42,72.89,348.1z"/>
		<path class="st10" d="M78.86,350.66c0.01-0.02,0.17-0.18,0.4-0.18c0.1,0,0.21,0.03,0.35,0.11l0.08,0.05v-0.01l0,0
			c0.15-0.14,0.3-0.18,0.42-0.18c0.1,0,0.19,0.03,0.26,0.06c0.03,0.01,0.06,0.03,0.08,0.04l0.02,0.01l0.01,0l0.06-0.08h0
			c0,0-0.18-0.14-0.42-0.14c-0.13,0-0.28,0.04-0.43,0.16v-3.66h-0.11l0,3.62c-0.12-0.06-0.23-0.08-0.32-0.08
			c-0.3,0-0.48,0.22-0.48,0.22L78.86,350.66L78.86,350.66z"/>
		<path class="st10" d="M81.59,351.57L81.59,351.57L81.59,351.57c-0.08,0.05-0.72,0.43-1.83,0.43c-0.53,0-1.17-0.09-1.91-0.35
			l-0.04,0.1c0.75,0.26,1.4,0.35,1.94,0.35c1.21,0,1.88-0.45,1.89-0.45L81.59,351.57z"/>
		<path class="st10" d="M79.7,352.44c-0.2,0-0.35-0.03-0.45-0.05c-0.05-0.01-0.09-0.03-0.12-0.04l-0.03-0.01l-0.01,0l-0.05,0.1l0,0
			c0.01,0,0.24,0.12,0.65,0.12c0.21,0,0.46-0.03,0.75-0.11l-0.03-0.1C80.14,352.41,79.9,352.44,79.7,352.44z"/>
		<path class="st10" d="M77.85,347.22c0.12,0.13,0.2,0.26,0.25,0.36c0.03,0.05,0.04,0.09,0.05,0.11l0.01,0.03l0,0.01l0.1-0.03h0
			c0,0-0.09-0.27-0.34-0.55c-0.25-0.28-0.68-0.59-1.35-0.66l-0.01,0.11C77.22,346.66,77.61,346.95,77.85,347.22z"/>
		<path class="st10" d="M73.55,347.23c0,0,0.31-0.37,0.72-0.97c0.81,0.05,3.43-0.04,3.81-0.12c0.41-0.09,0.52-0.27,0.52-0.27
			c0.67-0.64-2.16-0.44-3.13-0.31c-0.46,0.06-0.78,0.22-0.98,0.37c0.87-1.34,2.02-3.53,1.94-5.6c0.01,0.15,0.42,0.55,0.51,0.73
			c0.24,0.51,0.46,1.04,0.69,1.56c0.46,1.04,0.93,2.08,1.5,3.06c0.89,1.54,2.03,2.97,3.55,3.89c0.8,0.49,1.7,0.82,2.63,0.99
			c-0.46,1.24-1.13,2.3-1.96,3.1v3.2l0.03-0.04l0.93,2.08l1.9,1.09l0.04-0.07l4.8,2.83v0l2.08,1.19c0,0,0,0.01-0.01,0.04l1.31,2.26
			c0.12-0.22,0.24-0.44,0.34-0.67c0.51-1.17,0.67-2.47,0.7-3.74c0.02-0.6,0.01-1.21-0.19-1.77c-0.23-0.66-0.71-1.21-1.22-1.7
			c-0.85-0.81-1.82-1.5-2.87-2.03c-0.75-0.38-1.54-0.68-2.22-1.16c-0.69-0.48-1.28-1.17-1.39-2c-0.06-0.45,0.02-0.88,0.16-1.31
			c0.13-0.42,0.31-0.82,0.47-1.23c0.37-0.97,0.59-1.99,0.67-3.03c0.42-1.77,0.36-3.66-0.24-5.39c-0.35-1.01-0.87-1.97-1.64-2.71
			c-0.76-0.72-1.7-1.37-2.56-1.94c-0.94-0.62-1.88-1.14-2.97-1.42c-1.52-0.39-3.42-0.35-4.59,0.85c-0.57,0.59-0.94,1.35-1.24,2.11
			c-0.54-0.18-1.15-0.22-1.69-0.04c-0.91,0.31-1.5,1.19-1.84,2.09c-0.42,1.13-0.52,2.38-0.31,3.57c0.08,0.47,0.2,1,0.41,1.46
			c0.05,0.12,0.11,0.24,0.18,0.34C72.62,346.96,73.1,347.03,73.55,347.23z"/>
		<path class="st10" d="M91.95,395.34l-0.1-0.01c-0.07,1.22-0.37,2.1-0.65,2.68c-0.14,0.29-0.28,0.5-0.38,0.64
			c-0.05,0.07-0.09,0.12-0.12,0.16c-0.01,0.02-0.03,0.03-0.03,0.04l-0.01,0.01l0.07,0.07C90.73,398.93,91.81,397.81,91.95,395.34z"
			/>
		<polygon class="st10" points="90.72,398.94 90.72,398.94 90.72,398.94 		"/>
		<path class="st10" d="M92.55,397.5c-0.12,0.24-0.24,0.43-0.33,0.56c-0.04,0.06-0.08,0.11-0.11,0.14
			c-0.03,0.03-0.04,0.05-0.04,0.05l0.07,0.06c0,0,0.94-1.08,1.07-2.92l-0.1-0.01C93.06,396.29,92.79,397.01,92.55,397.5z"/>
		<polygon class="st10" points="92.14,398.31 92.14,398.31 92.14,398.31 		"/>
		<path class="st10" d="M93.66,396.86c-0.08,0.2-0.16,0.35-0.22,0.46c-0.03,0.05-0.05,0.1-0.07,0.12c-0.02,0.03-0.03,0.04-0.03,0.04
			l0.08,0.05c0,0,0.63-0.97,0.68-2.22l-0.1,0C93.99,395.92,93.83,396.46,93.66,396.86z"/>
		<polygon class="st10" points="93.43,397.53 93.43,397.53 93.43,397.53 		"/>
		<path class="st10" d="M93.09,364.82L93.09,364.82c0,0.01,0,0.03-0.01,0.06c-0.07,0.96-0.75,14.02-0.75,14.02l0.08,0
			c0,0,0.04-0.87,0.11-2.18l3.79-0.96l-0.02-0.07l-3.77,0.96c0.02-0.39,0.04-0.82,0.07-1.28c0.07-0.09,0.65-0.87,1.25-1.66
			c0.32-0.42,0.63-0.85,0.88-1.19c0.12-0.17,0.23-0.31,0.3-0.42c0.04-0.05,0.07-0.1,0.09-0.14c0.02-0.04,0.04-0.06,0.05-0.08
			l-0.07-0.03h0c0,0.01-0.02,0.03-0.04,0.07c-0.17,0.26-0.8,1.12-1.39,1.91c-0.29,0.39-0.58,0.77-0.79,1.05
			c-0.12,0.16-0.21,0.28-0.27,0.36c0.09-1.8,0.21-3.98,0.31-5.89c0.07-1.23,0.13-2.35,0.17-3.16c0.02-0.41,0.04-0.74,0.06-0.97
			c0.01-0.12,0.01-0.21,0.02-0.27c0-0.03,0-0.06,0.01-0.08l0-0.02l0-0.01l0,0l-0.01,0L93.09,364.82z"/>
		<path class="st10" d="M66.96,376.72c0.07,1.31,0.11,2.18,0.11,2.18l0.08,0c0,0-0.18-3.48-0.36-6.98c-0.09-1.75-0.18-3.5-0.26-4.83
			c-0.04-0.66-0.07-1.22-0.09-1.61c-0.01-0.2-0.02-0.36-0.03-0.47c0-0.06-0.01-0.1-0.01-0.13c0-0.03,0-0.05-0.01-0.06l-0.07,0.02h0
			l0,0l0,0c0,0.03,0.02,0.27,0.04,0.68c0.08,1.41,0.26,4.76,0.41,7.75c0.04,0.69,0.07,1.35,0.1,1.97c-0.07-0.09-0.18-0.24-0.32-0.42
			c-0.35-0.47-0.88-1.17-1.33-1.78c-0.22-0.3-0.43-0.58-0.58-0.8c-0.08-0.11-0.14-0.2-0.18-0.26c-0.05-0.07-0.07-0.11-0.08-0.13
			l-0.07,0.03h0c0.01,0.02,0.02,0.04,0.05,0.08c0.33,0.51,2.39,3.24,2.52,3.41c0.02,0.46,0.05,0.88,0.07,1.28l-3.77-0.96l-0.02,0.07
			L66.96,376.72z"/>
		<polygon class="st10" points="79.75,388.17 85.07,388.33 85.07,388.26 79.75,388.09 79.75,385.96 86.78,384.21 86.76,384.14 
			79.75,385.88 79.75,372.89 79.67,372.89 79.67,385.9 73.68,387.39 73.7,387.47 79.67,385.98 79.67,388.09 76.51,387.99 
			76.51,388.06 79.67,388.16 79.67,394.62 79.75,394.62 		"/>
	</g>
</g>
<rect x="287.4" y="195.53" class="st0" width="176.54" height="6.93"/>
<text transform="matrix(1 0 0 1 359.6135 127.012)"><tspan x="0" y="0" class="st2 st14 st15">Ridhi Goyal </tspan><tspan x="0" y="21.92" class="st0 st14 st15">A Data Analyst</tspan></text>
</svg>
