<?xml version="1.0" encoding="utf-8"?>
<!-- Generator: Adobe Illustrator 23.1.1, SVG Export Plug-In . SVG Version: 6.00 Build 0)  -->
<svg version="1.1" id="b52d7e2d-d80f-4111-b6ed-d15502ee1edd"
	 xmlns="http://www.w3.org/2000/svg" xmlns:xlink="http://www.w3.org/1999/xlink" x="0px" y="0px" viewBox="0 0 711.19 669.68"
	 style="enable-background:new 0 0 711.19 669.68;" xml:space="preserve">
<style type="text/css">
	.st0{fill:#B968C7;}
	.st1{fill:#F29C9C;}
	.st2{fill:#F6EEEB;}
	.st3{fill:#25214E;}
	.st4{fill:#643A5E;}
	.st5{fill:#67539D;}
</style>
<title>feeling_proud</title>
<g id="f3c2397c-d780-4cc6-97d8-1503d8277a2c">
	<rect id="ad41612f-86f7-46b2-a964-3a5da7bcf3cf" x="138.54" y="193.22" class="st0" width="108.99" height="26.24"/>
	<rect id="b9a0b375-cc2a-4c59-8850-661af54e4f62" x="586.6" y="193.22" class="st0" width="38.35" height="26.24"/>
	<rect id="e174c2ab-9bc5-41ec-b37c-b06fbf8a9878" x="663.29" y="193.22" class="st0" width="38.35" height="26.24"/>
	<rect id="ba2479ac-4c7d-43b4-a028-73b1e20e4002" x="285.88" y="193.22" class="st0" width="260.35" height="26.24"/>
	<rect id="ac60ef86-00f2-480b-8171-28b6fdfc1958" x="1.3" y="362.75" class="st0" width="108.99" height="26.24"/>
	<rect id="b3d8298d-cd65-487a-8b19-4cee946356e7" x="449.35" y="362.75" class="st0" width="38.35" height="26.24"/>
	<rect id="ed27f15f-f0c4-4569-8330-a6688f8e356c" x="526.05" y="362.75" class="st0" width="38.35" height="26.24"/>
	<rect id="f685c005-adaf-4d60-acda-005b037d82a6" x="148.64" y="362.75" class="st0" width="260.35" height="26.24"/>
	<rect id="eca7c7fc-83f8-48ca-a588-6606db47af3f" x="451.37" y="251.75" class="st0" width="108.99" height="26.24"/>
	<rect id="a71b5b2f-f8b9-481d-a301-5e3357e5fe42" x="598.7" y="251.75" class="st0" width="108.99" height="26.24"/>
	<rect id="abb3a25a-f854-41fc-8391-e6ad9fbe2417" x="1.3" y="251.75" class="st0" width="38.35" height="26.24"/>
	<rect id="add2b425-b775-4eb5-9c25-8c4c14f957c9" x="78" y="251.75" class="st0" width="38.35" height="26.24"/>
	<rect id="b7159612-3b84-4b0b-a885-612eaab04c06" x="154.69" y="251.75" class="st0" width="260.35" height="26.24"/>
	<rect id="edfc7301-4de5-47dc-80e2-1ae2da982d6d" x="225.33" y="308.26" class="st0" width="108.99" height="26.24"/>
	<rect id="e1009f91-6275-4375-80fa-0d778e331fdc" x="78" y="308.26" class="st0" width="108.99" height="26.24"/>
	<rect id="a060fb9f-1f1a-4862-9a69-16dd49199e18" x="1.3" y="308.26" class="st0" width="38.35" height="26.24"/>
	<rect id="b6754d5f-104f-449c-b9a9-cf9ac82bf5fe" x="669.34" y="308.26" class="st0" width="38.35" height="26.24"/>
	<rect id="e6ed1ccd-2cfd-450f-a339-07df3a1ee6bb" x="370.64" y="308.26" class="st0" width="260.35" height="26.24"/>
</g>
<g>
	<path class="st1" d="M577.55,456.51c-1.11-1.63-2.33-2.92-3.64-3.97l-36.06-61.46l0,0l-47.28-81.69c1.22-2.13,2.38-4.31,3.37-6.59
		c4.99-11.47,6.51-24.15,6.86-36.65c0.16-5.85,0.06-11.84-1.89-17.36c-2.29-6.49-6.95-11.86-11.93-16.62
		c-8.32-7.95-17.83-14.66-28.1-19.86c-7.31-3.7-15.06-6.66-21.8-11.32c-6.74-4.67-12.54-11.48-13.63-19.6
		c-0.58-4.36,0.21-8.64,1.53-12.85c1.28-4.07,3.05-8.07,4.56-12.04c3.62-9.5,5.79-19.53,6.52-29.67c4.13-17.36,3.48-35.89-2.31-52.8
		c-3.38-9.88-8.53-19.33-16.1-26.52c-7.41-7.04-16.62-13.38-25.08-19c-9.17-6.08-18.38-11.15-29.14-13.89
		c-14.9-3.78-33.55-3.47-44.96,8.3c-5.6,5.78-9.2,13.19-12.19,20.66c-5.33-1.79-11.24-2.19-16.55-0.36
		c-8.89,3.05-14.73,11.68-18.02,20.48c-4.15,11.1-5.12,23.32-3.07,34.98c0.81,4.58,1.97,9.81,3.97,14.31
		c-0.1-0.02-0.2-0.04-0.3-0.06c-1.34-2.58-2.63-5.18-3.82-7.79c-0.17,2.82-0.2,5.63-0.17,8.45c-0.51,0.31-1,0.68-1.45,1.2
		c-4.41,5.1-1.83,21.58,6.28,31.87c6.13,21.57,17.86,41.58,34.09,57.07c1.15,1.1,2.36,2.19,3.6,3.24v10.57l-0.29-0.39l-9.89,20.01
		l-52.84,30.01l-8.35,4.74l-2.13,1.21l-24.26,13.78c0,0,0.09,0.33,0.27,0.96L172.9,418.21l-16.63,57.9c0,0-1.06,3.27-1.55,8.04
		c-2.32,9.82-3.91,19.86-2.71,29.84c3.35,27.86,25.38,45.77,46.6,60.88c9.82,7,19.69,13.94,29.58,20.85l-6.89,43.43l5.35,1.16
		l-4.26,30.59h254.23l-6.1-31.51l1.07-0.24l-2.96-14.19c2.64-0.51,7.83-2.07,10.62-6.81c0,0,7.26-1.95,10.63-9.96
		c0,0,14.92-19.37-1.4-42.38c21.48-9.53,56.37-25.19,76.3-35.04c6.65-3.29,12.88-7.55,17.98-12.97c3.71-3.94,8.78-9.84,9.15-15.46
		C592.99,486.07,586.73,469.99,577.55,456.51z M237.45,495.92l4.1,15.62l-2.09,13.18c-2.47-3.96-5.02-7.87-7.72-11.6
		C233.37,508.35,235.32,502.46,237.45,495.92z M477.22,510.36c-8.88,8.7-17.76,17.4-26.64,26.1l-0.13-0.69h-0.41l-5.05-24.22l0-0.02
		l25.31-75.64c11.98,13.19,27.23,30.24,38.31,43.49C497.7,489.32,487.55,500.24,477.22,510.36z"/>
	<path class="st2" d="M329.94,135.28C329.94,135.28,329.95,135.28,329.94,135.28c0-0.01,0-0.01,0-0.02c-0.05-0.52-0.15-1-0.23-1.49
		c-2.01-11.51-12.44-16-23-16.34c-11.02-0.36-15.59,4.52-15.59,4.52c3.78,5.9,9.39,8.84,9.39,8.84l-0.02-0.04
		c2.33,1.82,4.78,3.15,7.25,4.09c2.48,0.94,4.96,1.51,7.33,1.81c8.18,1.05,14.92-0.98,14.92-0.98S329.97,135.52,329.94,135.28z"/>
	<path class="st3" d="M300.5,130.78l-0.02-0.04l-4.51-8c3.45-1.06,6.61-1.54,9.5-1.61c-1.67,2.99-1.45,6.8-0.43,10.12
		c0.63,1.38,1.55,2.58,2.69,3.58c2.48,0.94,4.96,1.51,7.33,1.81c0.84-0.04,1.68-0.16,2.49-0.45c3.87-1.32,6.28-4.31,7.11-7.67
		c3.6,3.41,5.27,6.72,5.29,6.76c0,0,0,0,0,0c0-0.01,0-0.02,0-0.03c-0.05-0.52-0.15-1-0.23-1.49c-2.01-11.51-12.44-16-23-16.34
		c-11.02-0.36-15.59,4.52-15.59,4.52C294.89,127.84,300.5,130.78,300.5,130.78z"/>
	<polygon class="st2" points="391.43,237.53 382.32,217.14 382.04,217.49 372.46,229.41 345.05,263.48 310.84,217.54 310.55,217.14 
		300.65,237.15 282.44,247.5 335.4,347.31 346.44,368.12 346.44,370.78 355.53,353.26 410.09,248.19 	"/>
	<path class="st3" d="M290.99,155.11c-0.19,0.02-0.36,0.06-0.56,0.08c-7.16,0.61-12.99-3.09-17.27-8.52
		c6.13,21.57,17.86,41.58,34.09,57.07c1.15,1.1,2.36,2.19,3.6,3.24v-20.46C302.4,178.49,295.53,167.7,290.99,155.11z"/>
	<path class="st3" d="M272.32,112.94c-1.34-2.58-2.63-5.18-3.82-7.79c-0.17,2.82-0.2,5.63-0.17,8.45
		C269.54,112.85,270.9,112.69,272.32,112.94z"/>
	<polygon class="st3" points="350.39,289.16 359.5,277.95 399.4,259.01 392.74,239.57 392.04,239.81 392.04,239.81 398.49,258.63 
		359.18,277.28 345.23,264.92 331.17,277.38 293.15,253.41 300.78,239.16 300.13,238.81 300.13,238.81 292.17,253.67 331.24,278.3 
		340.07,289.16 335.4,347.31 346.44,368.12 346.44,370.78 355.53,353.26 	"/>
	<path class="st3" d="M450.03,535.78l0.21,1.02c0.11-0.11,0.22-0.22,0.34-0.33l-0.13-0.69H450.03z"/>
	<path class="st4" d="M577.55,456.51c-1.11-1.63-2.33-2.91-3.65-3.97l-36.04-61.47l-47.27-81.68l-12.82-22.14
		c0.06-0.22,0.09-0.35,0.09-0.35l-20.4-11.66l-47.01-27.74l-0.35,0.69l-54.56,105.07l-9.08,17.51v-2.65l-11.04-20.81l-52.96-99.81
		l-34.63,19.66l-8.34,4.74l-2.13,1.2l-24.26,13.79c0,0,0.07,0.33,0.26,0.96l-40.43,130.35l-16.62,57.91c0,0-1.07,3.26-1.56,8.02
		c-2.32,9.82-3.91,19.87-2.72,29.85c3.35,27.85,25.39,45.77,46.61,60.87c9.82,7,19.7,13.94,29.58,20.85l-6.89,43.44l5.36,1.15
		l-4.26,30.59h254.23l-6.1-31.5l1.07-0.24l-2.96-14.19c-1,0.2-1.65,0.24-1.65,0.24c-7.56,10.36-13.56,6.5-13.56,6.5
		c-12.69,9.15-16.77,1.78-15.49-3.71c1.3-5.49,9.97-15.94,12.84-28.82c2.87-12.86-4.91-30.71-9.54-27.44
		c-4.65,3.24-10.47,16.21-14.45,17.59c-8.56,2.96-8.88-5.87-7-13.19c1.85-7.34,10.34-23.46,14.25-27.11
		c3.89-3.65,14.1-10.27,14.1-10.27l28.5,14.57c5.11,4.23,8.97,8.41,11.88,12.49c21.48-9.52,56.37-25.18,76.29-35.04
		c6.65-3.28,12.88-7.54,17.97-12.97c3.72-3.93,8.78-9.82,9.15-15.45C592.99,486.07,586.72,469.98,577.55,456.51z M239.47,524.72
		c-2.48-3.97-5.02-7.88-7.73-11.6c1.63-4.78,3.58-10.66,5.71-17.2l4.1,15.6L239.47,524.72z M477.22,510.36
		c-8.88,8.69-17.75,17.4-26.65,26.09c-0.11,0.11-0.22,0.22-0.33,0.33l-0.2-1.02l-5.06-24.22v-0.02l25.31-75.63
		c11.97,13.18,27.22,30.24,38.3,43.49C497.7,489.31,487.56,500.24,477.22,510.36z"/>
	<polygon class="st3" points="346.44,591.85 339.07,664.62 226.65,640.31 222.39,670.89 476.61,670.89 470.51,639.39 355.46,664.62 
			"/>
	<path class="st5" d="M346.26,201.63c-8.84,0-17.24-2.53-24.83-7.04c16.35,12.13,33.42,22.61,51.03,34.83l9.58-11.92v-31.33
		C371.97,195.88,359.62,201.63,346.26,201.63z"/>
	<path class="st3" d="M279.59,131.68c-3.55-3.13-7.45-6.51-9.03-7.61l-0.59,0.85c1.22,0.85,4.14,3.34,7.12,5.94
		c-0.01,0.29-0.03,0.58-0.03,0.86c0.01,7.65,4.31,12.85,4.35,12.9l0.8-0.66l0,0l-0.17-0.21c-0.77-1.03-3.93-5.67-3.94-11.99
		c0.27,0.23,0.54,0.47,0.8,0.7c1.77,1.56,3.44,3.05,4.67,4.16c1.23,1.1,2.02,1.82,2.02,1.82l0.7-0.77h0
		C286.29,137.66,283.13,134.8,279.59,131.68z"/>
	<path class="st3" d="M338.15,156.69c0.15-0.17,1.65-1.79,3.92-1.78c0.97,0,2.1,0.28,3.4,1.1l0.8,0.51v-0.14l0.04,0.04
		c1.48-1.37,2.9-1.76,4.13-1.77c1.02,0,1.91,0.28,2.54,0.57c0.32,0.14,0.57,0.29,0.74,0.39l0.19,0.13l0.06,0.04l0.63-0.83h0
		c-0.05-0.03-1.74-1.34-4.16-1.35c-1.27,0-2.72,0.42-4.16,1.52v-35.88h-1.04l0,35.44c-1.14-0.58-2.21-0.82-3.16-0.82
		c-2.97,0.01-4.69,2.12-4.74,2.16l0.8,0.66L338.15,156.69z"/>
	<path class="st3" d="M364.87,165.6L364.87,165.6l-0.07,0.04c-0.7,0.44-7.01,4.19-17.83,4.19c-5.21,0-11.47-0.87-18.66-3.4
		l-0.35,0.98c7.3,2.57,13.68,3.46,19.01,3.46c11.81,0,18.42-4.37,18.47-4.41L364.87,165.6z"/>
	<path class="st3" d="M346.36,174.15c-1.93,0-3.43-0.27-4.45-0.53c-0.51-0.13-0.89-0.26-1.15-0.36l-0.28-0.11l-0.08-0.04l-0.46,0.94
		l0,0c0.05,0.03,2.36,1.14,6.41,1.14c2.03,0,4.49-0.28,7.31-1.11l-0.29-1C350.65,173.89,348.29,174.15,346.36,174.15z"/>
	<path class="st3" d="M328.24,123c1.18,1.32,1.96,2.59,2.45,3.54c0.25,0.47,0.42,0.86,0.53,1.13l0.12,0.31l0.03,0.1l0.99-0.32h0
		c-0.01-0.04-0.86-2.65-3.35-5.44c-2.49-2.79-6.65-5.76-13.21-6.47l-0.11,1.03C321.99,117.56,325.89,120.36,328.24,123z"/>
	<path class="st3" d="M286.07,123.12c0,0,3-3.6,7.05-9.54c7.94,0.53,33.57-0.35,37.37-1.18c3.97-0.87,5.14-2.69,5.14-2.69
		c6.55-6.3-21.17-4.26-30.7-3.03c-4.51,0.58-7.6,2.14-9.62,3.62c8.52-13.16,19.75-34.54,18.98-54.81c0.05,1.43,4.14,5.42,4.98,7.2
		c2.38,5.04,4.53,10.19,6.79,15.28c4.52,10.19,9.15,20.35,14.73,30.01c8.68,15.05,19.91,29.07,34.74,38.13
		c7.88,4.81,16.67,8.08,25.75,9.7c-4.48,12.11-11.11,22.53-19.23,30.36v31.33l0.28-0.35l9.11,20.39l18.66,10.66l0.36-0.69
		l47.02,27.75v0l20.39,11.65c0,0-0.03,0.13-0.09,0.36l12.82,22.15c1.22-2.13,2.38-4.31,3.37-6.59c4.99-11.47,6.51-24.15,6.86-36.65
		c0.16-5.85,0.06-11.84-1.89-17.36c-2.29-6.49-6.95-11.86-11.93-16.62c-8.32-7.95-17.83-14.66-28.1-19.86
		c-7.31-3.7-15.06-6.66-21.8-11.32c-6.74-4.67-12.54-11.48-13.63-19.6c-0.58-4.36,0.21-8.64,1.53-12.85
		c1.28-4.07,3.05-8.07,4.56-12.04c3.62-9.5,5.79-19.53,6.52-29.67c4.13-17.36,3.48-35.89-2.31-52.8
		c-3.38-9.88-8.53-19.33-16.1-26.52c-7.41-7.04-16.62-13.38-25.08-19c-9.17-6.08-18.38-11.15-29.14-13.89
		c-14.9-3.78-33.55-3.47-44.96,8.3c-5.6,5.78-9.2,13.19-12.19,20.66c-5.33-1.79-11.24-2.19-16.55-0.36
		c-8.89,3.05-14.73,11.68-18.02,20.48c-4.15,11.1-5.12,23.32-3.07,34.98c0.81,4.58,1.97,9.81,3.97,14.31
		c0.52,1.17,1.09,2.31,1.74,3.35C276.94,120.48,281.65,121.2,286.07,123.12z"/>
	<path class="st3" d="M466.35,594.44l-0.94-0.05c-0.66,11.94-3.62,20.6-6.4,26.28c-1.39,2.84-2.74,4.93-3.74,6.31
		c-0.5,0.69-0.91,1.2-1.19,1.54c-0.14,0.17-0.25,0.29-0.33,0.38l-0.11,0.12l0.67,0.65C454.38,629.61,465.01,618.57,466.35,594.44z"
		/>
	<polygon class="st3" points="454.32,629.67 454.32,629.67 454.32,629.67 	"/>
	<path class="st3" d="M472.19,615.57c-1.21,2.4-2.38,4.24-3.25,5.48c-0.43,0.62-0.79,1.09-1.04,1.4c-0.25,0.31-0.38,0.46-0.38,0.46
		l0.7,0.62c0.04-0.05,9.25-10.53,10.51-28.6l-0.94-0.07C477.19,603.76,474.61,610.78,472.19,615.57z"/>
	<polygon class="st3" points="468.23,623.54 468.23,623.54 468.23,623.54 	"/>
	<path class="st3" d="M483.13,609.26c-0.79,1.91-1.57,3.45-2.14,4.51c-0.29,0.53-0.53,0.94-0.69,1.21
		c-0.17,0.27-0.26,0.41-0.26,0.41l0.78,0.51c0.02-0.04,6.22-9.48,6.7-21.75l-0.94-0.04C486.35,600.1,484.71,605.43,483.13,609.26z"
		/>
	<polygon class="st3" points="480.82,615.9 480.82,615.9 480.82,615.9 	"/>
	<path class="st3" d="M477.49,295.44L477.49,295.44c-0.02,0.11-0.03,0.27-0.06,0.58c-0.72,9.4-7.3,137.31-7.3,137.31l0.74,0.04
		c0,0,0.44-8.52,1.1-21.32l37.12-9.43l-0.18-0.72l-36.9,9.37c0.2-3.83,0.42-8.03,0.65-12.49c0.67-0.89,6.39-8.48,12.21-16.29
		c3.09-4.16,6.21-8.37,8.61-11.67c1.2-1.65,2.22-3.07,2.96-4.15c0.37-0.54,0.68-0.99,0.9-1.34c0.23-0.35,0.37-0.59,0.45-0.77
		l-0.68-0.28l0,0c-0.02,0.06-0.16,0.31-0.38,0.65c-1.65,2.55-7.84,10.94-13.6,18.67c-2.88,3.87-5.66,7.57-7.72,10.31
		c-1.16,1.54-2.08,2.76-2.67,3.55c0.92-17.63,2.03-39.01,3.02-57.65c0.64-12.09,1.23-23.02,1.67-30.99
		c0.22-3.99,0.41-7.24,0.54-9.52c0.07-1.14,0.13-2.05,0.17-2.68c0.02-0.32,0.04-0.57,0.06-0.74l0.02-0.21l0.01-0.06l0-0.01
		l-0.07-0.01L477.49,295.44z"/>
	<path class="st3" d="M221.55,412.05c0.66,12.8,1.1,21.32,1.1,21.32l0.74-0.04c0,0-1.75-34.08-3.55-68.35
		c-0.9-17.13-1.81-34.32-2.51-47.31c-0.35-6.5-0.65-11.95-0.88-15.82c-0.11-1.94-0.2-3.48-0.27-4.56c-0.03-0.54-0.06-0.97-0.09-1.27
		c-0.03-0.31-0.04-0.47-0.06-0.58l-0.72,0.16h0l0.01,0l-0.01,0c0.04,0.26,0.2,2.69,0.42,6.62c0.8,13.8,2.53,46.59,4.06,75.93
		c0.35,6.71,0.69,13.24,1.01,19.32c-0.66-0.88-1.73-2.3-3.09-4.11c-3.44-4.58-8.63-11.5-13.02-17.46c-2.2-2.98-4.2-5.71-5.69-7.8
		c-0.74-1.04-1.36-1.92-1.81-2.58c-0.44-0.65-0.73-1.12-0.77-1.23l-0.68,0.28h0c0.08,0.18,0.22,0.41,0.45,0.77
		c3.25,5.02,23.38,31.71,24.68,33.44c0.23,4.46,0.45,8.66,0.65,12.49l-36.9-9.37l-0.18,0.72L221.55,412.05z"/>
	<polygon class="st3" points="346.81,524.14 398.96,525.79 398.98,525.05 346.81,523.4 346.81,502.53 415.69,485.39 415.51,484.68 
		346.81,501.77 346.81,374.5 346.07,374.5 346.07,501.95 287.34,516.56 287.52,517.28 346.07,502.71 346.07,523.38 315.07,522.4 
		315.04,523.14 346.07,524.12 346.07,587.39 346.81,587.39 	"/>
</g>
</svg>
